#VRML V2.0 utf8
# 3D model generated by kicad-lcsc-manager
# Based on easyeda2kicad.py v1.0.1

Shape{
    appearance Appearance {
        material  Material {
            diffuseColor 0.4 0.4 0.4
            specularColor 0.5019607843137255 0.5019607843137255 0.5019607843137255
            ambientIntensity 0.502
            transparency 0.0
            shininess 0.5
        }
    }
    geometry IndexedFaceSet {
        ccw TRUE
        solid FALSE
        coord DEF co Coordinate {
            point [
                1.498 -0.2953 0.3346, 1.498 -0.2858 0.3346, 1.498 -0.2858 0.7091, 1.498 0.1357 0.7803, 1.498 0.1517 0.7803, 1.498 0.1517 0.7948, 1.498 0.0814 0.7293, 1.498 0.0802 0.7292, 1.498 0.0924 0.7292, 1.498 0.1915 0.8101, 1.498 0.1864 0.8239, 1.498 0.1678 0.8239, 1.498 -0.1175 0.8664, 1.498 -0.1097 0.8612, 1.498 -0.0255 0.8612, 1.498 -0.1014 0.8556, 1.498 -0.0895 0.8418, 1.498 -0.0491 0.7948, 1.498 -0.0255 0.7948, 1.498 -0.0523 0.8027, 1.498 -0.0597 0.813, 1.498 -0.0695 0.8213, 1.498 -0.082 0.8271, 1.498 -0.0802 0.8266, 1.498 -0.1849 0.8658, 1.498 -0.1683 0.8722, 1.498 -0.2858 1.077, 1.498 -0.0255 1.077, 1.498 -0.1505 0.8744, 1.498 -0.1356 0.8728, 1.498 -0.2858 0.8612, 1.498 -0.2321 0.8434, 1.498 -0.2179 0.8452, 1.498 -0.2762 0.7902, 1.498 -0.2754 0.7948, 1.498 -0.2858 0.7948, 1.498 -0.2738 0.8037, 1.498 -0.268 0.8167, 1.498 -0.2593 0.8279, 1.498 -0.1923 0.8612, 1.498 -0.1937 0.8603, 1.498 -0.2022 0.8531, 1.498 -0.2137 0.845, 1.498 -0.2096 0.8445, 1.498 -0.2569 0.8302, 1.498 -0.2455 0.8382, 1.498 -0.2323 0.7302, 1.498 -0.2369 0.7315, 1.498 -0.2858 0.7292, 1.498 -0.2499 0.7379, 1.498 -0.2612 0.7475, 1.498 -0.2694 0.7592, 1.498 -0.2745 0.7726, 1.498 -0.2763 0.7868, 1.498 -0.2162 0.7105, 1.498 -0.2233 0.7158, 1.498 -0.2287 0.7224, 1.498 -0.2319 0.7292, 1.498 -0.0255 0.7091, 1.498 -0.1831 0.7091, 1.498 -0.0255 0.3346, 1.498 -0.1893 0.7067, 1.498 -0.1981 0.7056, 1.498 -0.1994 0.7057, 1.498 -0.2079 0.707, 1.498 -0.213 0.7091, 1.498 -0.0255 0.7292, 1.498 -0.1643 0.7292, 1.498 -0.1643 0.7289, 1.498 -0.1686 0.7209, 1.498 -0.1741 0.7148, 1.498 -0.1813 0.7098, 1.498 -0.1182 0.7505, 1.498 -0.1158 0.7514, 1.498 -0.1115 0.772, 1.498 -0.0596 0.7457, 1.498 -0.0694 0.7374, 1.498 -0.171 0.7659, 1.498 -0.1227 0.7911, 1.498 -0.1773 0.7716, 1.498 -0.185 0.7757, 1.498 -0.1205 0.7489, 1.498 -0.0524 0.7557, 1.498 -0.0688 0.7825, 1.498 -0.0704 0.7894, 1.498 -0.0732 0.7948, 1.498 -0.2527 0.7948, 1.498 -0.0479 0.7917, 1.498 -0.0463 0.7799, 1.498 -0.0479 0.7671, 1.498 -0.113 0.7518, 1.498 -0.1126 0.7518, 1.498 -0.1115 0.7515, 1.498 -0.2505 0.773, 1.498 -0.2463 0.7658, 1.498 -0.228 0.762, 1.498 -0.2398 0.7592, 1.498 -0.2319 0.7543, 1.498 -0.2147 0.774, 1.498 -0.222 0.7689, 1.498 -0.2536 0.7875, 1.498 -0.2531 0.7818, 1.498 -0.2067 0.777, 1.498 -0.1981 0.7781, 1.498 -0.1937 0.7779, 1.498 -0.1241 0.7406, 1.498 -0.1241 0.742, 1.498 -0.162 0.7453, 1.498 -0.1233 0.7448, 1.498 -0.1219 0.7472, 1.498 -0.1157 0.7298, 1.498 -0.1181 0.7307, 1.498 -0.1204 0.7324, 1.498 -0.1213 0.7332, 1.498 -0.1229 0.7355, 1.498 -0.1238 0.7379, 1.498 -0.1622 0.7378, 1.498 -0.162 0.7417, 1.498 -0.0755 0.761, 1.498 -0.0717 0.7667, 1.498 -0.0693 0.7732, 1.498 -0.0686 0.7796, 1.498 -0.0804 0.732, 1.498 -0.0924 0.7294, 1.498 -0.1137 0.7294, 1.498 -0.1108 0.7514, 1.498 -0.0946 0.7514, 1.498 -0.09 0.7521, 1.498 -0.0834 0.7546, 1.498 -0.0778 0.7586, 1.498 -0.1075 0.8294, 1.498 -0.1156 0.8391, 1.498 -0.1984 0.8181, 1.498 -0.1164 0.8399, 1.498 -0.1265 0.8469, 1.498 -0.1929 0.8296, 1.498 -0.2009 0.8195, 1.498 -0.2089 0.8225, 1.498 -0.0904 0.807, 1.498 -0.0967 0.8077, 1.498 -0.0996 0.8077, 1.498 -0.1019 0.8178, 1.498 -0.0737 0.7957, 1.498 -0.0784 0.8009, 1.498 -0.0841 0.8047, 1.498 -0.2303 0.8212, 1.498 -0.2383 0.8169, 1.498 -0.2214 0.8233, 1.498 -0.2444 0.8115, 1.498 -0.2494 0.8043, 1.498 -0.1848 0.8392, 1.498 -0.1378 0.8512, 1.498 -0.1752 0.8462, 1.498 -0.1501 0.8527, 1.498 -0.1634 0.851, 1.498 -0.2175 0.8235, 1.498 -0.2525 0.7963, 1.498 0.1678 0.8484, 1.498 0.1725 0.8608, 1.498 0.1678 0.8612, 1.498 0.1795 0.8608, 1.498 0.1678 0.7948, 1.498 0.1988 0.8101, 1.498 0.2953 0.7948, 1.498 0.2953 0.8612, 1.498 0.1604 0.8101, 1.498 0.1532 0.8101, 1.498 0.1653 0.8239, 1.498 0.0983 0.8549, 1.498 0.1043 0.8612, 1.498 0.0983 0.8608, 1.498 0.0924 0.8612, 1.498 0.0924 0.8608, 1.498 0.0787 0.8329, 1.498 0.0787 0.8158, 1.498 0.0924 0.8329, 1.498 0.0924 0.8158, 1.498 0.0969 0.8329, 1.498 0.0995 0.8158, 1.498 0.0969 0.8387, 1.498 0.0787 0.8549, 1.498 0.0787 0.8387, 1.498 0.0924 0.8549, 1.498 0.0924 0.8387, 1.498 0.0722 0.8101, 1.498 0.0693 0.7948, 1.498 0.0924 0.8101, 1.498 0.0924 0.7948, 1.498 0.0995 0.8101, 1.498 0.1043 0.7948, 1.498 0.0722 0.8608, 1.498 0.0693 0.8612, 1.498 0.0552 0.8612, 1.498 0.0571 0.861, 1.498 0.0621 0.8596, 1.498 0.0621 0.8527, 1.498 0.0621 0.8184, 1.498 0.0358 0.8495, 1.498 0.0333 0.8459, 1.498 0.031 0.8344, 1.498 0.0569 0.8161, 1.498 0.0511 0.8151, 1.498 0.0317 0.8415, 1.498 0.031 0.8348, 1.498 0.0621 0.8122, 1.498 0.0613 0.8118, 1.498 0.0392 0.8106, 1.498 0.0344 0.8129, 1.498 0.0264 0.7948, 1.498 0.0306 0.8161, 1.498 0.0296 0.8172, 1.498 0.0564 0.855, 1.498 0.0501 0.8557, 1.498 0.0479 0.8556, 1.498 0.0435 0.8547, 1.498 0.0318 0.8282, 1.498 0.0333 0.824, 1.498 0.0359 0.8204, 1.498 0.0405 0.8169, 1.498 0.0442 0.8156, 1.498 0.049 0.815, 1.498 0.0615 0.853, 1.498 0.0395 0.8528, 1.498 0.0363 0.8501, 1.498 0.0372 0.8192, 1.498 0.0558 0.81, 1.498 0.048 0.8092, 1.498 0.0446 0.8094, 1.498 0.0505 0.8616, 1.498 0.0693 1.077, 1.498 0.05 0.8616, 1.498 0.0264 1.077, 1.498 0.0462 0.8612, 1.498 0.0264 0.8612, 1.498 0.0379 0.8589, 1.498 0.0433 0.8609, 1.498 0.0277 0.8494, 1.498 0.0314 0.8542, 1.498 0.0329 0.8556, 1.498 0.0267 0.8217, 1.498 0.0264 0.8228, 1.498 0.0233 0.7948, 1.498 0.0233 0.8612, 1.498 0.0253 0.8437, 1.498 0.0264 0.8461, 1.498 0.0248 0.8272, 1.498 0.0241 0.8345, 1.498 0.0242 0.8371, 1.498 0.1517 0.8612, 1.498 0.1323 0.8612, 1.498 0.1323 0.8596, 1.498 0.1502 0.8329, 1.498 0.149 0.827, 1.498 0.1465 0.8217, 1.498 0.1427 0.8172, 1.498 0.1414 0.8161, 1.498 0.1376 0.8576, 1.498 0.1427 0.8541, 1.498 0.1447 0.8521, 1.498 0.1478 0.8476, 1.498 0.1496 0.8427, 1.498 0.1503 0.8361, 1.498 0.1364 0.8129, 1.498 0.1323 0.8115, 1.498 0.1323 0.7948, 1.498 0.1304 0.8108, 1.498 0.123 0.8101, 1.498 0.1091 0.8101, 1.498 0.1091 0.8608, 1.498 0.1235 0.8608, 1.498 0.1315 0.8599, 1.498 0.0299 0.7451, 1.498 0.0312 0.7469, 1.498 0.0322 0.7571, 1.498 0.046 0.7301, 1.498 0.0436 0.7292, 1.498 0.0514 0.7296, 1.498 0.0482 0.7316, 1.498 0.0339 0.7301, 1.498 0.0264 0.7292, 1.498 0.0363 0.7292, 1.498 0.0364 0.7292, 1.498 0.0297 0.7343, 1.498 0.0289 0.7364, 1.498 0.0286 0.7393, 1.498 0.0511 0.7655, 1.498 0.0674 0.7604, 1.498 0.0686 0.7621, 1.498 0.0332 0.7486, 1.498 0.0359 0.75, 1.498 0.0362 0.7597, 1.498 0.0406 0.7511, 1.498 0.0462 0.7613, 1.498 0.044 0.7615, 1.498 0.0402 0.7611, 1.498 0.0317 0.7316, 1.498 0.031 0.7323, 1.498 0.0514 0.7352, 1.498 0.0512 0.7352, 1.498 0.0502 0.7337, 1.498 0.0286 0.7401, 1.498 0.029 0.7429, 1.498 0.0532 0.7643, 1.498 0.0549 0.7627, 1.498 0.0666 0.7583, 1.498 0.0562 0.7606, 1.498 0.0572 0.7578, 1.498 0.0383 0.7659, 1.498 0.0446 0.7667, 1.498 0.0484 0.7663, 1.498 0.0322 0.7633, 1.498 0.0336 0.7641, 1.498 0.0692 0.7492, 1.498 0.0663 0.7374, 1.498 0.0693 0.7492, 1.498 0.0688 0.7359, 1.498 0.0693 0.7357, 1.498 0.0682 0.7503, 1.498 0.0673 0.7517, 1.498 0.0577 0.7529, 1.498 0.0666 0.7536, 1.498 0.0664 0.7561, 1.498 0.0514 0.7526, 1.498 0.0511 0.7554, 1.498 0.0505 0.7577, 1.498 0.0497 0.759, 1.498 0.0488 0.76, 1.498 0.0477 0.7608, 1.498 0.0401 0.7288, 1.498 0.0264 0.7091, 1.498 0.0434 0.7291, 1.498 0.0693 0.7091, 1.498 0.0663 0.7309, 1.498 0.0577 0.7296, 1.498 0.0693 0.7299, 1.498 0.0693 0.7292, 1.498 0.0709 0.7293, 1.498 0.072 0.7292, 1.498 0.0762 0.7288, 1.498 0.0924 0.7091, 1.498 0.0891 0.7651, 1.498 0.0891 0.7589, 1.498 0.0704 0.7638, 1.498 0.0723 0.7649, 1.498 0.0905 0.7369, 1.498 0.0897 0.7349, 1.498 0.0885 0.7332, 1.498 0.0693 0.7627, 1.498 0.0758 0.7662, 1.498 0.0805 0.7667, 1.498 0.084 0.7664, 1.498 0.0887 0.7455, 1.498 0.0898 0.7437, 1.498 0.0905 0.7418, 1.498 0.0908 0.7395, 1.498 0.0867 0.7316, 1.498 0.0849 0.7305, 1.498 0.0798 0.7615, 1.498 0.078 0.7614, 1.498 0.0729 0.7566, 1.498 0.0763 0.7609, 1.498 0.0748 0.7602, 1.498 0.073 0.7558, 1.498 0.0732 0.7548, 1.498 0.0737 0.7539, 1.498 0.0743 0.7533, 1.498 0.0765 0.7519, 1.498 0.084 0.761, 1.498 0.0805 0.7501, 1.498 0.0876 0.7597, 1.498 0.0829 0.7492, 1.498 0.0871 0.7468, 1.498 0.0739 0.7593, 1.498 0.0733 0.7585, 1.498 0.073 0.7576, 1.498 0.0728 0.7344, 1.498 0.076 0.7455, 1.498 0.0722 0.7473, 1.498 0.0768 0.7339, 1.498 0.0771 0.7339, 1.498 0.0802 0.7438, 1.498 0.0803 0.7343, 1.498 0.0843 0.7388, 1.498 0.0842 0.7396, 1.498 0.082 0.7349, 1.498 0.0825 0.7353, 1.498 0.0833 0.7359, 1.498 0.0838 0.7367, 1.498 0.0841 0.7376, 1.498 0.0839 0.7406, 1.498 0.0834 0.7415, 1.498 0.0826 0.7423, 1.498 0.1223 0.7658, 1.498 0.1289 0.7658, 1.498 0.1323 0.7292, 1.498 0.1107 0.7386, 1.498 0.1114 0.7356, 1.498 0.1116 0.7356, 1.498 0.1043 0.757, 1.498 0.1124 0.7386, 1.498 0.1119 0.7369, 1.498 0.1043 0.74, 1.498 0.0941 0.7658, 1.498 0.1012 0.7658, 1.498 0.1081 0.7292, 1.498 0.1083 0.7297, 1.498 0.1043 0.7208, 1.498 0.1043 0.7208, 1.498 0.1043 0.7292, 1.498 0.1055 0.7231, 1.498 0.0954 0.7187, 1.498 0.0954 0.7131, 1.498 0.0967 0.7183, 1.498 0.099 0.718, 1.498 0.1005 0.7182, 1.498 0.1043 0.7137, 1.498 0.1021 0.7129, 1.498 0.1043 0.7091, 1.498 0.0995 0.7126, 1.498 0.0981 0.7126, 1.498 0.1019 0.7187, 1.498 0.1031 0.7195, 1.498 0.1124 0.7241, 1.498 0.1095 0.7185, 1.498 0.1323 0.7091, 1.498 0.1144 0.7292, 1.498 0.1072 0.7158, 1.498 0.1068 0.7154, 1.498 0.1046 0.7138, 1.498 0.1618 0.7803, 1.498 0.1618 0.7745, 1.498 0.163 0.7354, 1.498 0.1678 0.7292, 1.498 0.163 0.7296, 1.498 0.1517 0.7292, 1.498 0.1423 0.7525, 1.498 0.1423 0.7354, 1.498 0.1517 0.7525, 1.498 0.1517 0.7354, 1.498 0.1604 0.7525, 1.498 0.1604 0.7583, 1.498 0.1517 0.7583, 1.498 0.1517 0.7745, 1.498 0.1423 0.7583, 1.498 0.1423 0.7745, 1.498 0.1517 0.7296, 1.498 0.1357 0.7296, 1.498 0.2499 0.7435, 1.498 0.2288 0.7435, 1.498 0.2551 0.7296, 1.498 0.2239 0.7296, 1.498 0.2953 0.7292, 1.498 0.2082 0.7716, 1.498 0.2113 0.7671, 1.498 0.236 0.7803, 1.498 0.243 0.7803, 1.498 0.2623 0.7296, 1.498 0.2125 0.7465, 1.498 0.21 0.7413, 1.498 0.2167 0.7296, 1.498 0.2062 0.7367, 1.498 0.205 0.7356, 1.498 0.187 0.7803, 1.498 0.195 0.7794, 1.498 0.2062 0.7736, 1.498 0.2131 0.7622, 1.498 0.2138 0.7556, 1.498 0.2137 0.7525, 1.498 0.2011 0.7771, 1.498 0.1999 0.7324, 1.498 0.1939 0.7304, 1.498 0.1865 0.7296, 1.498 0.1726 0.7296, 1.498 0.1726 0.7803, 1.498 0.2953 0.7091, 1.498 0.1678 0.7091, 1.498 0.1517 0.7091, 1.498 0.2953 1.077, 1.498 0.1678 1.077, 1.498 0.1517 1.077, 1.498 0.1323 1.077, 1.498 0.1043 1.077, 1.498 0.0924 1.077, 1.498 0.2953 0.3346, 1.498 0.1678 0.3346, 1.498 0.1517 0.3346, 1.498 0.1323 0.3346, 1.498 0.1043 0.3346, 1.498 0.0924 0.3346, 1.498 0.0693 0.3346, 1.498 0.0264 0.3346, 1.498 0.0233 0.3346, 1.498 0.0233 0.7091, 1.498 0.0233 0.7292, 1.498 0.0225 0.7354, 1.498 0.0225 0.7296, 1.498 -0.0047 0.7296, 1.498 0.0214 0.7745, 1.498 -0.0047 0.7803, 1.498 0.0214 0.7803, 1.498 0.0018 0.7525, 1.498 0.0018 0.7354, 1.498 0.0199 0.7525, 1.498 0.0199 0.7583, 1.498 0.0018 0.7583, 1.498 0.0018 0.7745, 1.498 0.0018 0.8608, 1.498 0.0018 0.8158, 1.498 0.022 0.8158, 1.498 -0.0047 0.8101, 1.498 -0.0047 0.8608, 1.498 0.022 0.8101, 1.498 0.0233 1.077, 1.498 -0.2953 0.7091, 1.498 -0.2953 0.7292, 1.498 -0.2953 0.7948, 1.498 -0.2953 0.8612, 1.498 -0.2953 1.077, 1.498 0.2953 1.2795, 1.498 0.1678 1.2795, 1.498 0.1517 1.2795, 1.498 0.1323 1.2795, 1.498 0.1043 1.2795, 1.498 0.0924 1.2795, 1.498 0.0693 1.2795, 1.498 0.0264 1.2795, 1.498 0.0233 1.2795, 1.498 -0.0255 1.2795, 1.498 -0.2858 1.2795, 1.498 -0.2953 1.2795, -0.5413 0.2953 0.2559, -1.4626 0.2953 0.2559, -1.4626 0.3543 0.2559, -1.3248 0.4921 0.2559, -0.6791 0.4921 0.2559, -0.5413 0.3543 0.2559, 0.4587 0.2953 0.2559, -0.4626 0.2953 0.2559, -0.4626 0.3543 0.2559, -0.3248 0.4921 0.2559, 0.3209 0.4921 0.2559, 0.4587 0.3543 0.2559, 1.4587 0.3543 0.2559, 1.4587 0.2953 0.2559, 1.3209 0.4921 0.2559, 0.5374 0.2953 0.2559, 0.6752 0.4921 0.2559, 0.5374 0.3543 0.2559, 0.5374 -0.2953 0.2559, 1.4587 -0.2953 0.2559, 1.4587 -0.3543 0.2559, 1.3209 -0.4921 0.2559, 0.6752 -0.4921 0.2559, 0.5374 -0.3543 0.2559, 0.3209 -0.4921 0.2559, -0.3248 -0.4921 0.2559, 0.4587 -0.3543 0.2559, -0.4626 -0.3543 0.2559, 0.4587 -0.2953 0.2559, -0.4626 -0.2953 0.2559, 0.4587 0.2953 1.2008, 0.5374 0.2953 1.2008, 0.4587 0.2953 0.9646, 0.5374 0.2953 0.9646, 0.5374 -0.2953 1.2008, 0.4587 -0.2953 1.2008, 0.5374 -0.2953 0.9646, 0.4587 -0.2953 0.9646, -0.3248 -0.4921 1.2795, 0.3209 -0.4921 1.2795, 0.4587 -0.3543 1.2795, -0.1673 0.1654 1.2795, -0.4626 0.3543 1.2795, -0.1673 -0.1654 1.2795, -0.4626 -0.3543 1.2795, 0.1634 -0.1654 1.2795, 0.1634 0.1654 1.2795, 0.4587 0.3543 1.2795, 0.3209 0.4921 1.2795, -0.3248 0.4921 1.2795, 0.4587 0.2953 0.3346, 0.4587 0.2953 0.8858, 0.5374 0.2953 0.3346, 0.5374 0.2953 0.8858, 0.5374 -0.2953 0.3346, 0.5374 -0.2953 0.8858, 0.4587 -0.2953 0.3346, 0.4587 -0.2953 0.8858, -0.5413 0.2953 1.2008, -0.4626 0.2953 1.2008, -0.5413 0.2953 0.9646, -0.4626 0.2953 0.9646, -0.4626 -0.2953 1.2008, -0.5413 -0.2953 1.2008, -0.4626 -0.2953 0.9646, -0.5413 -0.2953 0.9646, -0.5413 0.3543 1.2795, -0.6791 0.4921 1.2795, -0.8366 0.1654 1.2795, -1.3248 0.4921 1.2795, -1.1673 0.1654 1.2795, -1.4626 0.3543 1.2795, -1.1673 -0.1654 1.2795, -1.502 0.2953 1.2795, -1.502 -0.2953 1.2795, -1.4626 -0.2953 1.2795, -0.5413 -0.3543 1.2795, -0.8366 -0.1654 1.2795, -0.6791 -0.4921 1.2795, -1.4626 0.2953 1.2795, -1.3248 -0.4921 1.2795, -1.4626 -0.3543 1.2795, -0.5413 0.2953 0.3346, -0.5413 0.2953 0.8858, -0.4626 0.2953 0.3346, -0.4626 0.2953 0.8858, -0.4626 -0.2953 0.3346, -0.4626 -0.2953 0.8858, -0.5413 -0.2953 0.3346, -0.5413 -0.2953 0.8858, -0.6791 -0.4921 0.2559, -1.3248 -0.4921 0.2559, 1.3209 -0.4921 1.2795, 0.6752 -0.4921 1.2795, -1.502 -0.2953 0.3346, -1.502 0.2953 0.3346, 1.3209 0.4921 1.2795, 0.6752 0.4921 1.2795, -0.5413 -0.3543 0.2559, -1.4626 -0.3543 0.2559, -0.5413 -0.2953 0.2559, -1.4626 -0.2953 0.2559, 1.4587 -0.3543 1.2795, 1.4587 -0.2953 1.2795, 0.5374 -0.3543 1.2795, 0.8327 -0.1654 1.2795, 0.5374 0.3543 1.2795, 0.8327 0.1654 1.2795, 1.4587 0.3543 1.2795, 1.1634 0.1654 1.2795, 1.4587 0.2953 1.2795, 1.1634 -0.1654 1.2795, -1.4626 0.2953 0.3346, -1.4626 -0.2953 0.3346, 1.4587 -0.2953 0.3346, 1.4587 0.2953 0.3346, -1.128 -0.126 1.2568, -1.128 0.126 1.2568, -0.876 -0.126 1.2568, -0.876 0.126 1.2568, -0.128 -0.126 1.2568, -0.128 0.126 1.2568, 0.124 -0.126 1.2568, 0.124 0.126 1.2568, 0.872 -0.126 1.2568, 0.872 0.126 1.2568, 1.124 -0.126 1.2568, 1.124 0.126 1.2568, -1.128 -0.126 0.3346, -0.876 -0.126 0.3346, -0.876 0.126 0.3346, -1.128 0.126 0.3346, -0.128 -0.126 0.3346, 0.124 -0.126 0.3346, 0.124 0.126 0.3346, -0.128 0.126 0.3346, 0.872 -0.126 0.3346, 1.124 -0.126 0.3346, 0.872 0.126 0.3346, 1.124 0.126 0.3346
            ]
        }
        coordIndex [
            0,1,2,-1,3,4,5,-1,6,7,8,-1,9,10,11,-1,12,13,14,-1,14,13,15,-1,14,15,16,-1,17,18,19,-1,19,18,14,-1,19,14,20,-1,20,14,21,-1,16,22,14,-1,14,22,23,-1,14,23,21,-1,24,25,26,-1,26,25,27,-1,27,25,28,-1,27,28,29,-1,30,31,32,-1,33,34,35,-1,35,34,36,-1,35,36,30,-1,30,36,37,-1,30,37,38,-1,24,26,39,-1,39,26,30,-1,39,30,40,-1,40,30,32,-1,40,32,41,-1,41,32,42,-1,41,42,43,-1,38,44,30,-1,30,44,45,-1,30,45,31,-1,46,47,48,-1,48,47,49,-1,48,49,50,-1,50,51,48,-1,48,51,52,-1,48,52,35,-1,35,52,53,-1,35,53,33,-1,54,55,2,-1,2,55,56,-1,2,56,48,-1,48,56,57,-1,48,57,46,-1,58,59,60,-1,60,59,61,-1,60,61,1,-1,1,61,62,-1,62,63,1,-1,1,63,64,-1,1,64,2,-1,2,64,65,-1,2,65,54,-1,66,67,58,-1,58,67,68,-1,58,68,69,-1,69,70,58,-1,58,70,71,-1,58,71,59,-1,72,73,74,-1,75,76,66,-1,77,78,79,-1,79,78,80,-1,72,74,81,-1,75,66,82,-1,83,84,78,-1,78,84,85,-1,78,85,86,-1,17,87,18,-1,18,87,88,-1,18,88,66,-1,66,88,89,-1,66,89,82,-1,73,90,74,-1,74,90,91,-1,74,91,92,-1,93,94,95,-1,95,94,96,-1,95,96,97,-1,98,86,99,-1,99,86,100,-1,99,100,95,-1,95,100,101,-1,95,101,93,-1,98,102,86,-1,86,102,103,-1,86,103,78,-1,78,103,104,-1,78,104,80,-1,105,106,107,-1,107,106,108,-1,107,108,74,-1,74,108,109,-1,74,109,81,-1,110,111,67,-1,67,111,112,-1,67,112,113,-1,113,114,67,-1,67,114,115,-1,67,115,116,-1,116,115,105,-1,116,105,117,-1,117,105,107,-1,118,119,74,-1,74,119,120,-1,74,120,78,-1,78,120,121,-1,78,121,83,-1,76,122,66,-1,66,122,123,-1,66,123,67,-1,67,123,124,-1,67,124,110,-1,92,125,74,-1,74,125,126,-1,74,126,127,-1,127,128,74,-1,74,128,129,-1,74,129,118,-1,130,131,132,-1,131,133,132,-1,132,133,134,-1,132,134,135,-1,85,132,86,-1,86,132,136,-1,86,136,137,-1,138,139,85,-1,85,139,140,-1,85,140,132,-1,132,140,141,-1,132,141,130,-1,142,143,85,-1,85,143,144,-1,85,144,138,-1,145,146,147,-1,147,146,148,-1,147,148,149,-1,135,134,150,-1,150,134,151,-1,150,151,152,-1,152,151,153,-1,152,153,154,-1,137,155,86,-1,86,155,147,-1,86,147,156,-1,156,147,149,-1,157,158,159,-1,159,158,160,-1,9,161,162,-1,162,161,163,-1,162,163,160,-1,160,163,164,-1,160,164,159,-1,165,166,5,-1,9,11,161,-1,161,11,167,-1,161,167,165,-1,168,169,170,-1,170,169,171,-1,170,171,172,-1,173,174,175,-1,175,174,176,-1,175,176,177,-1,177,176,178,-1,177,178,179,-1,180,181,182,-1,182,181,183,-1,182,183,168,-1,184,185,186,-1,186,185,187,-1,186,187,188,-1,188,187,189,-1,188,189,178,-1,172,171,190,-1,190,171,191,-1,190,191,184,-1,192,193,191,-1,191,193,194,-1,191,194,195,-1,196,197,198,-1,196,199,200,-1,200,199,201,-1,198,202,196,-1,196,202,203,-1,196,203,199,-1,196,204,185,-1,185,204,205,-1,206,207,208,-1,208,207,209,-1,208,209,210,-1,211,212,196,-1,196,212,213,-1,196,213,214,-1,215,216,217,-1,218,219,199,-1,199,219,220,-1,199,220,201,-1,184,191,185,-1,185,191,195,-1,185,195,196,-1,196,195,221,-1,196,221,211,-1,214,222,196,-1,196,222,223,-1,196,223,197,-1,215,217,199,-1,199,217,224,-1,199,224,218,-1,205,225,185,-1,185,225,226,-1,185,226,208,-1,208,226,227,-1,208,227,206,-1,228,229,230,-1,230,229,231,-1,230,231,232,-1,233,234,235,-1,236,237,233,-1,233,237,238,-1,233,238,234,-1,210,239,208,-1,208,239,240,-1,208,240,241,-1,242,243,233,-1,233,243,244,-1,233,244,236,-1,240,245,241,-1,241,245,246,-1,241,246,242,-1,242,246,247,-1,242,247,243,-1,248,249,250,-1,251,252,5,-1,252,253,5,-1,5,253,254,-1,5,254,255,-1,250,256,248,-1,248,256,257,-1,248,257,258,-1,258,259,248,-1,248,259,260,-1,248,260,261,-1,157,159,166,-1,166,159,248,-1,166,248,5,-1,5,248,261,-1,5,261,251,-1,262,263,264,-1,264,263,265,-1,266,267,189,-1,189,267,169,-1,189,169,178,-1,178,169,168,-1,178,168,179,-1,179,168,183,-1,267,268,169,-1,169,268,269,-1,169,269,249,-1,249,269,270,-1,249,270,250,-1,271,272,273,-1,274,275,276,-1,274,276,277,-1,278,279,280,-1,280,279,281,-1,282,283,279,-1,279,283,284,-1,285,286,287,-1,272,288,273,-1,273,288,289,-1,273,289,290,-1,290,289,291,-1,292,293,291,-1,291,293,294,-1,291,294,290,-1,278,295,279,-1,279,295,296,-1,279,296,282,-1,297,298,276,-1,276,298,299,-1,276,299,277,-1,208,300,301,-1,285,302,286,-1,286,302,303,-1,286,303,304,-1,304,303,305,-1,304,305,306,-1,307,308,208,-1,208,308,309,-1,271,273,301,-1,301,273,310,-1,301,310,208,-1,208,310,311,-1,208,311,307,-1,312,313,314,-1,314,313,315,-1,314,315,316,-1,317,318,319,-1,319,318,320,-1,319,320,306,-1,306,320,321,-1,306,321,304,-1,322,323,291,-1,291,323,324,-1,291,324,325,-1,325,326,291,-1,291,326,327,-1,291,327,292,-1,328,329,330,-1,330,329,331,-1,330,331,275,-1,312,317,313,-1,313,317,319,-1,313,319,332,-1,332,319,333,-1,332,333,334,-1,334,333,335,-1,334,335,336,-1,336,335,337,-1,338,337,331,-1,331,337,335,-1,331,335,275,-1,275,335,333,-1,275,333,276,-1,338,331,7,-1,7,331,339,-1,7,339,8,-1,340,341,8,-1,342,343,185,-1,344,345,8,-1,8,345,346,-1,309,285,208,-1,208,285,287,-1,208,287,185,-1,185,287,347,-1,185,347,342,-1,343,348,185,-1,185,348,349,-1,185,349,187,-1,187,349,350,-1,187,350,340,-1,351,352,341,-1,341,352,353,-1,341,353,8,-1,8,353,354,-1,8,354,344,-1,346,355,8,-1,8,355,356,-1,8,356,6,-1,357,358,359,-1,359,358,360,-1,359,360,361,-1,359,362,357,-1,357,362,363,-1,357,363,364,-1,364,365,357,-1,357,365,366,-1,357,366,367,-1,367,366,368,-1,367,368,369,-1,369,368,370,-1,369,370,341,-1,341,370,371,-1,341,371,351,-1,372,373,361,-1,361,373,374,-1,361,374,359,-1,375,376,316,-1,316,376,377,-1,316,377,314,-1,375,378,376,-1,376,378,379,-1,376,379,380,-1,380,379,381,-1,380,382,383,-1,381,384,380,-1,380,384,385,-1,380,385,386,-1,386,387,380,-1,380,387,388,-1,380,388,382,-1,383,389,380,-1,380,389,390,-1,380,390,391,-1,392,393,264,-1,264,393,394,-1,395,396,397,-1,265,266,264,-1,264,266,189,-1,264,189,392,-1,392,189,398,-1,392,398,399,-1,399,398,395,-1,399,395,400,-1,400,395,397,-1,401,402,8,-1,340,8,187,-1,187,8,402,-1,187,402,189,-1,189,402,403,-1,189,403,398,-1,404,405,401,-1,406,407,408,-1,408,407,409,-1,408,409,404,-1,404,401,408,-1,408,401,8,-1,408,8,410,-1,410,8,339,-1,410,339,411,-1,410,412,408,-1,408,412,413,-1,408,413,414,-1,415,416,417,-1,417,416,418,-1,417,418,339,-1,339,418,419,-1,339,419,411,-1,414,420,408,-1,408,420,421,-1,408,421,406,-1,422,423,424,-1,422,424,425,-1,423,426,424,-1,424,426,427,-1,424,427,417,-1,417,427,428,-1,417,428,415,-1,165,5,161,-1,161,5,4,-1,161,4,429,-1,429,430,161,-1,161,430,431,-1,161,431,432,-1,432,431,433,-1,432,433,434,-1,435,436,437,-1,437,436,438,-1,437,438,439,-1,439,438,431,-1,439,431,440,-1,440,431,430,-1,440,430,441,-1,441,430,442,-1,441,442,443,-1,443,442,444,-1,433,445,434,-1,434,445,446,-1,434,446,394,-1,394,446,3,-1,394,3,264,-1,264,3,5,-1,264,5,262,-1,262,5,255,-1,447,448,449,-1,449,448,450,-1,449,450,451,-1,452,453,454,-1,161,454,163,-1,163,454,455,-1,163,455,451,-1,451,455,456,-1,451,456,449,-1,457,458,459,-1,459,458,460,-1,459,460,461,-1,462,463,161,-1,452,454,464,-1,453,465,454,-1,454,465,466,-1,454,466,459,-1,459,466,467,-1,459,467,457,-1,161,463,454,-1,454,463,468,-1,454,468,464,-1,461,469,459,-1,459,469,470,-1,459,470,471,-1,450,459,451,-1,451,459,471,-1,451,471,432,-1,432,471,472,-1,432,472,161,-1,161,472,473,-1,161,473,462,-1,474,451,475,-1,475,451,432,-1,475,432,476,-1,476,432,434,-1,476,434,424,-1,424,434,394,-1,424,394,425,-1,425,394,393,-1,164,477,159,-1,159,477,478,-1,159,478,248,-1,248,478,479,-1,248,479,249,-1,249,479,480,-1,249,480,169,-1,169,480,481,-1,169,481,171,-1,171,481,482,-1,171,482,191,-1,191,482,229,-1,191,229,192,-1,192,229,228,-1,483,474,484,-1,484,474,475,-1,484,475,485,-1,485,475,476,-1,485,476,486,-1,486,476,424,-1,486,424,487,-1,487,424,417,-1,487,417,488,-1,488,417,339,-1,488,339,489,-1,489,339,331,-1,489,331,490,-1,490,331,329,-1,490,329,491,-1,491,329,492,-1,491,492,60,-1,328,281,329,-1,329,281,279,-1,329,279,492,-1,492,279,493,-1,494,495,493,-1,493,495,496,-1,284,300,279,-1,279,300,208,-1,279,208,493,-1,493,208,241,-1,493,241,494,-1,494,241,497,-1,60,492,58,-1,58,492,493,-1,58,493,66,-1,66,493,496,-1,66,496,18,-1,18,496,498,-1,18,498,241,-1,241,498,499,-1,241,499,497,-1,500,501,502,-1,502,501,494,-1,502,494,503,-1,503,494,497,-1,503,497,504,-1,504,497,505,-1,506,507,508,-1,509,510,14,-1,14,510,506,-1,14,506,242,-1,242,506,508,-1,242,508,241,-1,241,508,511,-1,241,511,18,-1,18,511,509,-1,18,509,14,-1,235,232,233,-1,233,232,231,-1,233,231,242,-1,242,231,512,-1,242,512,14,-1,14,512,27,-1,14,27,12,-1,12,27,29,-1,0,2,513,-1,513,2,48,-1,513,48,514,-1,514,48,35,-1,514,35,515,-1,515,35,30,-1,515,30,516,-1,516,30,26,-1,516,26,517,-1,477,518,478,-1,478,518,519,-1,478,519,479,-1,479,519,520,-1,479,520,480,-1,480,520,521,-1,480,521,481,-1,481,521,522,-1,481,522,482,-1,482,522,523,-1,482,523,229,-1,229,523,524,-1,229,524,231,-1,231,524,525,-1,231,525,512,-1,512,525,526,-1,512,526,27,-1,27,526,527,-1,27,527,26,-1,26,527,528,-1,26,528,517,-1,517,528,529,-1,530,531,532,-1,533,534,532,-1,532,534,535,-1,532,535,530,-1,536,537,538,-1,539,540,538,-1,538,540,541,-1,538,541,536,-1,542,543,544,-1,544,543,545,-1,544,545,546,-1,546,545,547,-1,548,549,550,-1,551,552,550,-1,550,552,553,-1,550,553,548,-1,554,555,556,-1,556,555,557,-1,556,557,558,-1,558,557,559,-1,560,561,562,-1,562,561,563,-1,564,565,566,-1,566,565,567,-1,568,569,570,-1,571,572,573,-1,573,572,574,-1,573,574,575,-1,574,568,575,-1,575,568,570,-1,575,570,576,-1,576,570,577,-1,576,577,571,-1,571,577,578,-1,571,578,572,-1,572,578,579,-1,580,581,582,-1,582,581,583,-1,584,585,586,-1,586,585,587,-1,569,568,554,-1,554,568,555,-1,540,539,578,-1,578,539,579,-1,588,589,590,-1,590,589,591,-1,592,593,594,-1,594,593,595,-1,596,597,598,-1,598,597,599,-1,598,599,600,-1,600,599,601,-1,600,601,602,-1,603,604,605,-1,596,598,606,-1,606,598,607,-1,606,607,608,-1,603,605,609,-1,610,608,611,-1,611,608,607,-1,611,607,605,-1,605,607,602,-1,605,602,609,-1,609,602,601,-1,612,613,614,-1,614,613,615,-1,616,617,618,-1,618,617,619,-1,608,610,620,-1,620,610,621,-1,534,533,597,-1,597,533,599,-1,622,623,551,-1,551,623,552,-1,604,603,624,-1,624,603,625,-1,544,546,626,-1,626,546,627,-1,620,621,628,-1,628,621,629,-1,628,629,630,-1,630,629,631,-1,622,632,633,-1,634,635,636,-1,636,635,637,-1,627,636,626,-1,626,636,637,-1,626,637,638,-1,638,637,639,-1,638,639,640,-1,640,639,641,-1,640,641,518,-1,634,623,635,-1,635,623,622,-1,635,622,641,-1,641,622,633,-1,641,633,518,-1,518,633,529,-1,612,530,535,-1,595,619,590,-1,590,619,613,-1,628,630,618,-1,612,535,613,-1,613,535,596,-1,613,596,590,-1,618,619,628,-1,628,619,595,-1,628,595,606,-1,606,595,593,-1,606,593,596,-1,596,593,588,-1,596,588,590,-1,594,615,617,-1,538,591,572,-1,572,591,589,-1,572,589,574,-1,574,589,592,-1,592,594,574,-1,574,594,617,-1,574,617,557,-1,557,617,616,-1,557,616,559,-1,594,591,615,-1,615,591,538,-1,615,538,614,-1,614,538,537,-1,592,589,593,-1,593,589,588,-1,591,594,590,-1,590,594,595,-1,617,615,619,-1,619,615,613,-1,580,536,541,-1,567,587,562,-1,562,587,581,-1,556,558,586,-1,580,541,581,-1,581,541,577,-1,581,577,562,-1,586,587,556,-1,556,587,567,-1,556,567,570,-1,570,567,565,-1,570,565,577,-1,577,565,560,-1,577,560,562,-1,566,583,585,-1,547,563,636,-1,636,563,561,-1,636,561,634,-1,634,561,564,-1,564,566,634,-1,634,566,585,-1,634,585,553,-1,553,585,584,-1,553,584,548,-1,566,563,583,-1,583,563,547,-1,583,547,582,-1,582,547,545,-1,564,561,565,-1,565,561,560,-1,563,566,562,-1,562,566,567,-1,585,583,587,-1,587,583,581,-1,609,601,642,-1,642,601,532,-1,642,532,531,-1,625,603,642,-1,642,603,609,-1,643,605,624,-1,624,605,604,-1,611,605,629,-1,629,605,643,-1,629,643,631,-1,633,632,644,-1,644,632,550,-1,644,550,549,-1,0,529,644,-1,644,529,633,-1,645,640,483,-1,483,640,518,-1,638,640,542,-1,542,640,645,-1,542,645,543,-1,632,622,550,-1,550,622,551,-1,626,638,544,-1,544,638,542,-1,623,634,552,-1,552,634,553,-1,570,569,556,-1,556,569,554,-1,568,574,555,-1,555,574,557,-1,636,627,547,-1,547,627,546,-1,578,577,540,-1,540,577,541,-1,572,579,538,-1,538,579,539,-1,606,608,628,-1,628,608,620,-1,610,611,621,-1,621,611,629,-1,597,596,534,-1,534,596,535,-1,601,599,532,-1,532,599,533,-1,602,646,600,-1,600,646,647,-1,607,648,602,-1,602,648,646,-1,649,598,647,-1,647,598,600,-1,598,649,607,-1,607,649,648,-1,573,650,571,-1,571,650,651,-1,575,652,573,-1,573,652,650,-1,653,576,651,-1,651,576,571,-1,576,653,575,-1,575,653,652,-1,635,654,637,-1,637,654,655,-1,641,656,635,-1,635,656,654,-1,657,639,655,-1,655,639,637,-1,639,657,641,-1,641,657,656,-1,643,618,631,-1,631,618,630,-1,558,559,586,-1,586,559,616,-1,549,548,644,-1,644,548,584,-1,531,530,642,-1,642,530,612,-1,580,614,536,-1,536,614,537,-1,645,582,543,-1,543,582,545,-1,643,624,625,-1,625,642,643,-1,643,642,658,-1,643,658,618,-1,618,658,659,-1,612,660,642,-1,642,660,661,-1,642,661,658,-1,616,662,586,-1,586,662,663,-1,659,660,618,-1,618,660,612,-1,618,612,616,-1,616,612,614,-1,616,614,662,-1,580,664,614,-1,614,664,665,-1,614,665,662,-1,584,666,644,-1,644,666,667,-1,663,664,586,-1,586,664,580,-1,586,580,584,-1,584,580,582,-1,584,582,666,-1,666,582,668,-1,668,582,669,-1,669,582,645,-1,669,645,483,-1,483,484,669,-1,669,484,485,-1,669,485,486,-1,486,487,669,-1,669,487,488,-1,669,488,489,-1,489,490,669,-1,669,490,491,-1,669,491,667,-1,667,491,60,-1,667,60,644,-1,644,60,1,-1,644,1,0,-1,
        ]
    }
}
Shape{
    appearance Appearance {
        material  Material {
            diffuseColor 0.8 0.6470588235294118 0.4
            specularColor 1.0 0.807843137254902 0.4980392156862745
            ambientIntensity 0.83
            transparency 0.0
            shininess 0.5
        }
    }
    geometry IndexedFaceSet {
        ccw TRUE
        solid FALSE
        coord DEF co Coordinate {
            point [
                -0.876 -0.1378 0.0, -1.128 -0.1378 0.0, -1.128 -0.0695 0.009, -0.876 -0.0695 0.009, -1.128 -0.0059 0.0353, -0.876 -0.0059 0.0353, -1.128 0.0487 0.0773, -0.876 0.0487 0.0773, -1.128 0.0906 0.1319, -0.876 0.0906 0.1319, -1.128 0.117 0.1955, -0.876 0.117 0.1955, -1.128 0.126 0.2638, -0.876 0.126 0.2638, -1.128 -0.8071 0.0, -0.876 -0.8071 0.0, -1.0484 -0.9449 0.1724, -1.0484 -0.9449 0.0796, -0.9555 -0.9449 0.1724, -0.9555 -0.9449 0.0796, -0.876 -0.8071 0.252, -0.876 -0.1378 0.252, -1.128 -0.8071 0.252, -1.128 -0.1378 0.252, -0.876 -0.126 0.2638, -1.128 -0.126 0.2638, -0.876 -0.1264 0.2607, -1.128 -0.1264 0.2607, -0.876 -0.1276 0.2579, -1.128 -0.1276 0.2579, -0.876 -0.1294 0.2554, -1.128 -0.1294 0.2554, -0.876 -0.1319 0.2536, -1.128 -0.1319 0.2536, -0.876 -0.1347 0.2524, -1.128 -0.1347 0.2524, -1.128 -0.126 0.3346, -0.876 -0.126 0.3346, -0.876 0.126 0.3346, -1.128 0.126 0.3346, -1.128 0.126 3.5039, -1.128 0.126 1.2568, -1.128 -0.126 3.5039, -1.128 -0.126 1.2568, -0.876 0.126 3.5039, -0.876 0.126 1.2568, -0.876 -0.126 3.5039, -0.876 -0.126 1.2568, -1.0484 0.0464 3.6417, -1.0484 -0.0464 3.6417, -0.9555 0.0464 3.6417, -0.9555 -0.0464 3.6417, 1.124 -0.1378 0.0, 0.872 -0.1378 0.0, 0.872 -0.0695 0.009, 1.124 -0.0695 0.009, 0.872 -0.0059 0.0353, 1.124 -0.0059 0.0353, 0.872 0.0487 0.0773, 1.124 0.0487 0.0773, 0.872 0.0906 0.1319, 1.124 0.0906 0.1319, 0.872 0.117 0.1955, 1.124 0.117 0.1955, 0.872 0.126 0.2638, 1.124 0.126 0.2638, 0.872 -0.8071 0.0, 1.124 -0.8071 0.0, 0.9516 -0.9449 0.1724, 0.9516 -0.9449 0.0796, 1.0445 -0.9449 0.1724, 1.0445 -0.9449 0.0796, 1.124 -0.8071 0.252, 1.124 -0.1378 0.252, 0.872 -0.8071 0.252, 0.872 -0.1378 0.252, 1.124 -0.126 0.2638, 0.872 -0.126 0.2638, 1.124 -0.1264 0.2607, 0.872 -0.1264 0.2607, 1.124 -0.1276 0.2579, 0.872 -0.1276 0.2579, 1.124 -0.1294 0.2554, 0.872 -0.1294 0.2554, 1.124 -0.1319 0.2536, 0.872 -0.1319 0.2536, 1.124 -0.1347 0.2524, 0.872 -0.1347 0.2524, 0.872 -0.126 0.3346, 1.124 -0.126 0.3346, 1.124 0.126 0.3346, 0.872 0.126 0.3346, 0.872 0.126 3.5039, 0.872 0.126 1.2568, 0.872 -0.126 3.5039, 0.872 -0.126 1.2568, 1.124 0.126 3.5039, 1.124 0.126 1.2568, 1.124 -0.126 3.5039, 1.124 -0.126 1.2568, 0.9516 0.0464 3.6417, 0.9516 -0.0464 3.6417, 1.0445 0.0464 3.6417, 1.0445 -0.0464 3.6417, 0.124 -0.126 0.2638, -0.128 -0.126 0.2638, -0.128 -0.117 0.1955, 0.124 -0.117 0.1955, -0.128 -0.0906 0.1319, 0.124 -0.0906 0.1319, -0.128 -0.0487 0.0773, 0.124 -0.0487 0.0773, -0.128 0.0059 0.0353, 0.124 0.0059 0.0353, -0.128 0.0695 0.009, 0.124 0.0695 0.009, -0.128 0.1378 0.0, 0.124 0.1378 0.0, 0.124 0.8071 0.0, -0.128 0.8071 0.0, -0.0484 0.9449 0.0796, -0.0484 0.9449 0.1724, 0.0445 0.9449 0.0796, 0.0445 0.9449 0.1724, -0.128 0.8071 0.252, -0.128 0.1378 0.252, 0.124 0.8071 0.252, 0.124 0.1378 0.252, 0.124 0.1347 0.2524, -0.128 0.1347 0.2524, 0.124 0.1319 0.2536, -0.128 0.1319 0.2536, 0.124 0.1294 0.2554, -0.128 0.1294 0.2554, 0.124 0.1276 0.2579, -0.128 0.1276 0.2579, 0.124 0.1264 0.2607, -0.128 0.1264 0.2607, 0.124 0.126 0.2638, -0.128 0.126 0.2638, -0.128 0.126 0.3346, -0.128 -0.126 0.3346, 0.124 0.126 0.3346, 0.124 -0.126 0.3346, 0.124 0.126 3.5039, 0.124 0.126 1.2568, -0.128 0.126 3.5039, -0.128 0.126 1.2568, -0.0484 0.0464 3.6417, -0.0484 -0.0464 3.6417, 0.0445 0.0464 3.6417, 0.0445 -0.0464 3.6417, -0.128 -0.126 3.5039, -0.128 -0.126 1.2568, 0.124 -0.126 3.5039, 0.124 -0.126 1.2568
            ]
        }
        coordIndex [
            0,1,2,-1,0,2,3,-1,3,2,4,-1,3,4,5,-1,5,4,6,-1,5,6,7,-1,7,6,8,-1,7,8,9,-1,9,8,10,-1,9,10,11,-1,11,10,12,-1,11,12,13,-1,14,1,15,-1,15,1,0,-1,16,17,18,-1,18,17,19,-1,20,21,22,-1,22,21,23,-1,24,25,26,-1,26,25,27,-1,26,27,28,-1,28,27,29,-1,28,29,30,-1,30,29,31,-1,30,31,32,-1,32,31,33,-1,32,33,34,-1,34,33,35,-1,34,35,21,-1,21,35,23,-1,25,24,36,-1,36,24,37,-1,20,15,21,-1,21,15,0,-1,21,0,34,-1,34,0,3,-1,34,3,32,-1,32,3,5,-1,32,5,30,-1,30,5,7,-1,30,7,28,-1,28,7,9,-1,28,9,26,-1,26,9,11,-1,26,11,24,-1,24,11,13,-1,24,13,37,-1,37,13,38,-1,13,12,38,-1,38,12,39,-1,36,39,25,-1,25,39,12,-1,25,12,27,-1,27,12,10,-1,27,10,29,-1,29,10,8,-1,29,8,31,-1,31,8,6,-1,31,6,33,-1,33,6,4,-1,33,4,35,-1,35,4,2,-1,35,2,23,-1,23,2,1,-1,23,1,22,-1,22,1,14,-1,40,41,42,-1,42,41,43,-1,44,45,40,-1,40,45,41,-1,46,47,44,-1,44,47,45,-1,42,43,46,-1,46,43,47,-1,48,49,50,-1,50,49,51,-1,17,14,19,-1,19,14,15,-1,16,22,17,-1,17,22,14,-1,20,18,15,-1,15,18,19,-1,18,20,16,-1,16,20,22,-1,46,51,42,-1,42,51,49,-1,44,50,46,-1,46,50,51,-1,48,40,49,-1,49,40,42,-1,40,48,44,-1,44,48,50,-1,52,53,54,-1,52,54,55,-1,55,54,56,-1,55,56,57,-1,57,56,58,-1,57,58,59,-1,59,58,60,-1,59,60,61,-1,61,60,62,-1,61,62,63,-1,63,62,64,-1,63,64,65,-1,66,53,67,-1,67,53,52,-1,68,69,70,-1,70,69,71,-1,72,73,74,-1,74,73,75,-1,76,77,78,-1,78,77,79,-1,78,79,80,-1,80,79,81,-1,80,81,82,-1,82,81,83,-1,82,83,84,-1,84,83,85,-1,84,85,86,-1,86,85,87,-1,86,87,73,-1,73,87,75,-1,77,76,88,-1,88,76,89,-1,72,67,73,-1,73,67,52,-1,73,52,86,-1,86,52,55,-1,86,55,84,-1,84,55,57,-1,84,57,82,-1,82,57,59,-1,82,59,80,-1,80,59,61,-1,80,61,78,-1,78,61,63,-1,78,63,76,-1,76,63,65,-1,76,65,89,-1,89,65,90,-1,65,64,90,-1,90,64,91,-1,88,91,77,-1,77,91,64,-1,77,64,79,-1,79,64,62,-1,79,62,81,-1,81,62,60,-1,81,60,83,-1,83,60,58,-1,83,58,85,-1,85,58,56,-1,85,56,87,-1,87,56,54,-1,87,54,75,-1,75,54,53,-1,75,53,74,-1,74,53,66,-1,92,93,94,-1,94,93,95,-1,96,97,92,-1,92,97,93,-1,98,99,96,-1,96,99,97,-1,94,95,98,-1,98,95,99,-1,100,101,102,-1,102,101,103,-1,69,66,71,-1,71,66,67,-1,68,74,69,-1,69,74,66,-1,72,70,67,-1,67,70,71,-1,70,72,68,-1,68,72,74,-1,98,103,94,-1,94,103,101,-1,96,102,98,-1,98,102,103,-1,100,92,101,-1,101,92,94,-1,92,100,96,-1,96,100,102,-1,104,105,106,-1,104,106,107,-1,107,106,108,-1,107,108,109,-1,109,108,110,-1,109,110,111,-1,111,110,112,-1,111,112,113,-1,113,112,114,-1,113,114,115,-1,115,114,116,-1,115,116,117,-1,118,117,119,-1,119,117,116,-1,120,121,122,-1,122,121,123,-1,124,125,126,-1,126,125,127,-1,127,125,128,-1,128,125,129,-1,128,129,130,-1,130,129,131,-1,130,131,132,-1,132,131,133,-1,132,133,134,-1,134,133,135,-1,134,135,136,-1,136,135,137,-1,136,137,138,-1,138,137,139,-1,124,119,125,-1,125,119,116,-1,125,116,129,-1,129,116,114,-1,129,114,131,-1,131,114,112,-1,131,112,133,-1,133,112,110,-1,133,110,135,-1,135,110,108,-1,135,108,137,-1,137,108,106,-1,137,106,139,-1,139,106,105,-1,139,105,140,-1,140,105,141,-1,142,143,138,-1,138,143,104,-1,138,104,136,-1,136,104,107,-1,136,107,134,-1,134,107,109,-1,134,109,132,-1,132,109,111,-1,132,111,130,-1,130,111,113,-1,130,113,128,-1,128,113,115,-1,128,115,127,-1,127,115,117,-1,127,117,126,-1,126,117,118,-1,141,105,143,-1,143,105,104,-1,138,139,142,-1,142,139,140,-1,144,145,146,-1,146,145,147,-1,148,149,150,-1,150,149,151,-1,152,153,154,-1,154,153,155,-1,154,155,144,-1,144,155,145,-1,146,147,152,-1,152,147,153,-1,126,123,124,-1,124,123,121,-1,118,122,126,-1,126,122,123,-1,120,119,121,-1,121,119,124,-1,119,120,118,-1,118,120,122,-1,154,151,152,-1,152,151,149,-1,144,150,154,-1,154,150,151,-1,148,146,149,-1,149,146,152,-1,146,148,144,-1,144,148,150,-1,
        ]
    }
}
Shape{
    appearance Appearance {
        material  Material {
            diffuseColor 1.0 1.0 1.0
            specularColor 0.5019607843137255 0.5019607843137255 0.5019607843137255
            ambientIntensity 1.0
            transparency 0.0
            shininess 0.5
        }
    }
    geometry IndexedFaceSet {
        ccw TRUE
        solid FALSE
        coord DEF co Coordinate {
            point [
                1.502 0.022 0.8158, 1.502 0.022 0.8101, 1.498 0.022 0.8158, 1.498 0.022 0.8101, 1.502 0.0018 0.8158, 1.498 0.0018 0.8158, 1.502 0.0018 0.8608, 1.498 0.0018 0.8608, 1.502 -0.0047 0.8608, 1.498 -0.0047 0.8608, 1.502 -0.0047 0.8101, 1.498 -0.0047 0.8101, 1.502 0.048 0.8092, 1.498 0.048 0.8092, 1.498 0.0558 0.81, 1.502 0.0558 0.81, 1.498 0.0613 0.8118, 1.502 0.0613 0.8118, 1.498 0.0621 0.8122, 1.502 0.0621 0.8122, 1.502 0.0621 0.8184, 1.498 0.0621 0.8184, 1.498 0.0569 0.8161, 1.502 0.0569 0.8161, 1.498 0.0511 0.8151, 1.502 0.0511 0.8151, 1.498 0.049 0.815, 1.502 0.049 0.815, 1.498 0.0442 0.8156, 1.502 0.0442 0.8156, 1.498 0.0405 0.8169, 1.502 0.0405 0.8169, 1.498 0.0372 0.8192, 1.502 0.0372 0.8192, 1.498 0.0359 0.8204, 1.502 0.0359 0.8204, 1.498 0.0333 0.824, 1.502 0.0333 0.824, 1.498 0.0318 0.8282, 1.502 0.0318 0.8282, 1.498 0.031 0.8344, 1.502 0.031 0.8344, 1.498 0.031 0.8348, 1.502 0.031 0.8348, 1.498 0.0317 0.8415, 1.502 0.0317 0.8415, 1.498 0.0333 0.8459, 1.502 0.0333 0.8459, 1.498 0.0358 0.8495, 1.502 0.0358 0.8495, 1.498 0.0363 0.8501, 1.502 0.0363 0.8501, 1.498 0.0395 0.8528, 1.502 0.0395 0.8528, 1.498 0.0435 0.8547, 1.502 0.0435 0.8547, 1.498 0.0479 0.8556, 1.502 0.0479 0.8556, 1.498 0.0501 0.8557, 1.502 0.0501 0.8557, 1.498 0.0564 0.855, 1.502 0.0564 0.855, 1.498 0.0615 0.853, 1.502 0.0615 0.853, 1.498 0.0621 0.8527, 1.502 0.0621 0.8527, 1.502 0.0621 0.8596, 1.498 0.0621 0.8596, 1.498 0.05 0.8616, 1.502 0.05 0.8616, 1.502 0.0505 0.8616, 1.498 0.0571 0.861, 1.502 0.0571 0.861, 1.498 0.0552 0.8612, 1.498 0.0505 0.8616, 1.502 0.0433 0.8609, 1.498 0.0462 0.8612, 1.498 0.0433 0.8609, 1.498 0.0379 0.8589, 1.502 0.0379 0.8589, 1.498 0.0329 0.8556, 1.502 0.0329 0.8556, 1.498 0.0314 0.8542, 1.502 0.0314 0.8542, 1.498 0.0277 0.8494, 1.498 0.0264 0.8461, 1.502 0.0253 0.8437, 1.502 0.0277 0.8494, 1.498 0.0253 0.8437, 1.498 0.0242 0.8371, 1.502 0.0242 0.8371, 1.498 0.0241 0.8345, 1.502 0.0241 0.8345, 1.498 0.0248 0.8272, 1.502 0.0248 0.8272, 1.498 0.0264 0.8228, 1.502 0.0267 0.8217, 1.498 0.0267 0.8217, 1.498 0.0296 0.8172, 1.502 0.0296 0.8172, 1.498 0.0306 0.8161, 1.502 0.0306 0.8161, 1.498 0.0344 0.8129, 1.502 0.0344 0.8129, 1.498 0.0392 0.8106, 1.502 0.0392 0.8106, 1.498 0.0446 0.8094, 1.502 0.0446 0.8094, 1.502 0.0995 0.8158, 1.502 0.0995 0.8101, 1.498 0.0995 0.8158, 1.498 0.0995 0.8101, 1.498 0.0787 0.8158, 1.502 0.0787 0.8158, 1.498 0.0924 0.8158, 1.502 0.0787 0.8329, 1.498 0.0787 0.8329, 1.502 0.0969 0.8329, 1.498 0.0924 0.8329, 1.498 0.0969 0.8329, 1.502 0.0969 0.8387, 1.498 0.0969 0.8387, 1.498 0.0787 0.8387, 1.502 0.0787 0.8387, 1.498 0.0924 0.8387, 1.502 0.0787 0.8549, 1.498 0.0787 0.8549, 1.502 0.0983 0.8549, 1.498 0.0924 0.8549, 1.498 0.0983 0.8549, 1.502 0.0983 0.8608, 1.498 0.0983 0.8608, 1.498 0.0722 0.8608, 1.502 0.0722 0.8608, 1.498 0.0924 0.8608, 1.502 0.0722 0.8101, 1.498 0.0722 0.8101, 1.498 0.0924 0.8101, 1.502 0.1393 0.8488, 1.502 0.1447 0.8521, 1.502 0.1379 0.8502, 1.502 0.1427 0.8541, 1.502 0.134 0.8527, 1.502 0.1376 0.8576, 1.502 0.1296 0.8543, 1.502 0.1315 0.8599, 1.502 0.1233 0.8549, 1.502 0.1235 0.8608, 1.502 0.1156 0.8549, 1.502 0.1091 0.8608, 1.502 0.1156 0.8158, 1.502 0.1091 0.8101, 1.502 0.123 0.8158, 1.502 0.123 0.8101, 1.502 0.1296 0.8166, 1.502 0.1304 0.8108, 1.502 0.1339 0.8182, 1.502 0.1364 0.8129, 1.502 0.1372 0.8204, 1.502 0.1414 0.8161, 1.502 0.138 0.8211, 1.502 0.1427 0.8172, 1.502 0.1407 0.8245, 1.502 0.1465 0.8217, 1.502 0.1424 0.8283, 1.502 0.149 0.827, 1.502 0.1433 0.833, 1.502 0.1502 0.8329, 1.502 0.1435 0.8359, 1.502 0.1503 0.8361, 1.502 0.1427 0.8422, 1.502 0.1496 0.8427, 1.502 0.1413 0.8459, 1.502 0.1478 0.8476, 1.498 0.123 0.8101, 1.498 0.1091 0.8101, 1.498 0.1304 0.8108, 1.498 0.1323 0.8115, 1.498 0.1364 0.8129, 1.498 0.1414 0.8161, 1.498 0.1427 0.8172, 1.498 0.1465 0.8217, 1.498 0.149 0.827, 1.498 0.1502 0.8329, 1.498 0.1503 0.8361, 1.498 0.1496 0.8427, 1.498 0.1478 0.8476, 1.498 0.1447 0.8521, 1.498 0.1427 0.8541, 1.498 0.1235 0.8608, 1.498 0.1376 0.8576, 1.498 0.1323 0.8596, 1.498 0.1315 0.8599, 1.498 0.1091 0.8608, 1.498 0.1233 0.8549, 1.498 0.1156 0.8549, 1.498 0.1156 0.8158, 1.498 0.123 0.8158, 1.498 0.138 0.8211, 1.498 0.1372 0.8204, 1.498 0.1339 0.8182, 1.498 0.1296 0.8166, 1.498 0.1435 0.8359, 1.498 0.1433 0.833, 1.498 0.1424 0.8283, 1.498 0.1407 0.8245, 1.498 0.1379 0.8502, 1.498 0.1393 0.8488, 1.498 0.1413 0.8459, 1.498 0.1427 0.8422, 1.498 0.1296 0.8543, 1.498 0.134 0.8527
            ]
        }
        coordIndex [
            0,1,2,-1,2,1,3,-1,4,0,5,-1,5,0,2,-1,6,4,7,-1,7,4,5,-1,8,6,9,-1,9,6,7,-1,10,8,11,-1,11,8,9,-1,1,10,3,-1,3,10,11,-1,6,8,4,-1,4,8,10,-1,4,10,0,-1,0,10,1,-1,12,13,14,-1,12,14,15,-1,15,14,16,-1,15,16,17,-1,17,16,18,-1,17,18,19,-1,20,19,21,-1,21,19,18,-1,20,21,22,-1,20,22,23,-1,23,22,24,-1,23,24,25,-1,25,24,26,-1,25,26,27,-1,27,26,28,-1,27,28,29,-1,29,28,30,-1,29,30,31,-1,31,30,32,-1,31,32,33,-1,33,32,34,-1,33,34,35,-1,35,34,36,-1,35,36,37,-1,37,36,38,-1,37,38,39,-1,39,38,40,-1,39,40,41,-1,41,40,42,-1,41,42,43,-1,43,42,44,-1,43,44,45,-1,45,44,46,-1,45,46,47,-1,47,46,48,-1,47,48,49,-1,49,48,50,-1,49,50,51,-1,51,50,52,-1,51,52,53,-1,53,52,54,-1,53,54,55,-1,55,54,56,-1,55,56,57,-1,57,56,58,-1,57,58,59,-1,59,58,60,-1,59,60,61,-1,61,60,62,-1,61,62,63,-1,63,62,64,-1,63,64,65,-1,66,65,67,-1,67,65,64,-1,68,69,70,-1,66,67,71,-1,66,71,72,-1,72,71,73,-1,72,73,70,-1,70,73,74,-1,70,74,68,-1,69,68,75,-1,75,68,76,-1,76,77,75,-1,75,77,78,-1,75,78,79,-1,79,78,80,-1,79,80,81,-1,81,80,82,-1,81,82,83,-1,83,82,84,-1,85,86,84,-1,84,86,87,-1,84,87,83,-1,85,88,86,-1,86,88,89,-1,86,89,90,-1,90,89,91,-1,90,91,92,-1,92,91,93,-1,92,93,94,-1,94,93,95,-1,94,95,96,-1,95,97,96,-1,96,97,98,-1,96,98,99,-1,99,98,100,-1,99,100,101,-1,101,100,102,-1,101,102,103,-1,103,102,104,-1,103,104,105,-1,105,104,106,-1,105,106,107,-1,107,106,13,-1,107,13,12,-1,63,65,66,-1,37,39,94,-1,94,39,92,-1,83,51,81,-1,81,51,53,-1,63,66,61,-1,61,66,72,-1,61,72,59,-1,59,72,70,-1,59,70,57,-1,57,70,69,-1,57,69,55,-1,55,69,75,-1,55,75,53,-1,53,75,79,-1,53,79,81,-1,19,20,17,-1,17,20,23,-1,17,23,15,-1,15,23,12,-1,39,41,92,-1,92,41,43,-1,92,43,90,-1,90,43,45,-1,90,45,86,-1,86,45,87,-1,87,45,47,-1,87,47,83,-1,83,47,49,-1,83,49,51,-1,94,96,37,-1,37,96,99,-1,37,99,35,-1,35,99,101,-1,35,101,33,-1,33,101,103,-1,33,103,31,-1,31,103,105,-1,31,105,29,-1,29,105,107,-1,29,107,27,-1,27,107,12,-1,27,12,25,-1,25,12,23,-1,108,109,110,-1,110,109,111,-1,112,113,114,-1,114,113,108,-1,114,108,110,-1,115,113,116,-1,116,113,112,-1,115,116,117,-1,117,116,118,-1,117,118,119,-1,120,117,121,-1,121,117,119,-1,122,123,124,-1,124,123,120,-1,124,120,121,-1,125,123,126,-1,126,123,122,-1,125,126,127,-1,127,126,128,-1,127,128,129,-1,130,127,131,-1,131,127,129,-1,132,133,134,-1,134,133,130,-1,134,130,131,-1,135,133,136,-1,136,133,132,-1,135,136,109,-1,109,136,137,-1,109,137,111,-1,135,109,108,-1,108,113,135,-1,135,113,115,-1,135,115,133,-1,127,130,125,-1,125,130,133,-1,125,133,123,-1,123,133,115,-1,123,115,120,-1,120,115,117,-1,138,139,140,-1,140,139,141,-1,140,141,142,-1,142,141,143,-1,142,143,144,-1,144,143,145,-1,144,145,146,-1,146,145,147,-1,146,147,148,-1,148,147,149,-1,148,149,150,-1,150,149,151,-1,150,151,152,-1,152,151,153,-1,152,153,154,-1,154,153,155,-1,154,155,156,-1,156,155,157,-1,156,157,158,-1,158,157,159,-1,158,159,160,-1,160,159,161,-1,160,161,162,-1,162,161,163,-1,162,163,164,-1,164,163,165,-1,164,165,166,-1,166,165,167,-1,166,167,168,-1,168,167,169,-1,168,169,170,-1,170,169,171,-1,170,171,172,-1,172,171,173,-1,172,173,138,-1,138,173,139,-1,153,151,174,-1,174,151,175,-1,153,174,176,-1,153,176,155,-1,155,176,177,-1,155,177,157,-1,177,178,157,-1,157,178,179,-1,157,179,159,-1,159,179,180,-1,159,180,161,-1,161,180,181,-1,161,181,163,-1,163,181,182,-1,163,182,165,-1,165,182,183,-1,165,183,167,-1,167,183,184,-1,167,184,169,-1,169,184,185,-1,169,185,171,-1,171,185,186,-1,171,186,173,-1,173,186,187,-1,173,187,139,-1,139,187,188,-1,139,188,141,-1,189,147,145,-1,141,188,190,-1,141,190,143,-1,143,190,191,-1,143,191,145,-1,145,191,192,-1,145,192,189,-1,149,147,193,-1,193,147,189,-1,151,149,175,-1,175,149,193,-1,146,148,194,-1,194,148,195,-1,148,150,195,-1,195,150,196,-1,150,152,196,-1,196,152,197,-1,160,198,199,-1,160,199,158,-1,158,199,200,-1,158,200,156,-1,156,200,201,-1,156,201,154,-1,154,201,197,-1,154,197,152,-1,168,202,203,-1,168,203,166,-1,166,203,204,-1,166,204,164,-1,164,204,205,-1,164,205,162,-1,162,205,198,-1,162,198,160,-1,140,206,207,-1,140,207,138,-1,138,207,208,-1,138,208,172,-1,172,208,209,-1,172,209,170,-1,170,209,202,-1,170,202,168,-1,146,194,210,-1,146,210,144,-1,144,210,211,-1,144,211,142,-1,142,211,206,-1,142,206,140,-1,
        ]
    }
}
Shape{
    appearance Appearance {
        material  Material {
            diffuseColor 0.4 0.4 0.4
            specularColor 0.5019607843137255 0.5019607843137255 0.5019607843137255
            ambientIntensity 0.502
            transparency 0.0
            shininess 0.5
        }
    }
    geometry IndexedFaceSet {
        ccw TRUE
        solid FALSE
        coord DEF co Coordinate {
            point [
                1.498 0.1156 0.8549, 1.498 0.1156 0.8158, 1.498 0.1233 0.8549, 1.498 0.123 0.8158, 1.498 0.1372 0.8204, 1.498 0.138 0.8211, 1.498 0.1296 0.8166, 1.498 0.1339 0.8182, 1.498 0.1407 0.8245, 1.498 0.1424 0.8283, 1.498 0.1433 0.833, 1.498 0.1435 0.8359, 1.498 0.1427 0.8422, 1.498 0.1413 0.8459, 1.498 0.1393 0.8488, 1.498 0.1379 0.8502, 1.498 0.1296 0.8543, 1.498 0.134 0.8527
            ]
        }
        coordIndex [
            0,1,2,-1,2,1,3,-1,2,4,5,-1,3,6,2,-1,2,6,7,-1,2,7,4,-1,5,8,2,-1,2,8,9,-1,2,9,10,-1,10,11,2,-1,2,11,12,-1,2,12,13,-1,13,14,2,-1,2,14,15,-1,2,15,16,-1,16,15,17,-1,
        ]
    }
}
Shape{
    appearance Appearance {
        material  Material {
            diffuseColor 1.0 1.0 1.0
            specularColor 0.5019607843137255 0.5019607843137255 0.5019607843137255
            ambientIntensity 1.0
            transparency 0.0
            shininess 0.5
        }
    }
    geometry IndexedFaceSet {
        ccw TRUE
        solid FALSE
        coord DEF co Coordinate {
            point [
                1.502 0.1673 0.8297, 1.502 0.1653 0.8239, 1.502 0.1844 0.8297, 1.502 0.1864 0.8239, 1.502 0.1749 0.8507, 1.502 0.1725 0.8608, 1.502 0.1532 0.8101, 1.502 0.1604 0.8101, 1.502 0.1754 0.8523, 1.502 0.1757 0.8543, 1.502 0.1795 0.8608, 1.502 0.1759 0.8543, 1.502 0.1763 0.8521, 1.502 0.1767 0.8507, 1.502 0.1988 0.8101, 1.502 0.1915 0.8101, 1.498 0.1795 0.8608, 1.498 0.1988 0.8101, 1.498 0.1725 0.8608, 1.498 0.1532 0.8101, 1.498 0.1678 0.8484, 1.498 0.1604 0.8101, 1.498 0.1653 0.8239, 1.498 0.1864 0.8239, 1.498 0.1678 0.8239, 1.498 0.1915 0.8101, 1.498 0.1673 0.8297, 1.498 0.1844 0.8297, 1.498 0.1767 0.8507, 1.498 0.1759 0.8543, 1.498 0.1763 0.8521, 1.498 0.1757 0.8543, 1.498 0.1749 0.8507, 1.498 0.1754 0.8523
            ]
        }
        coordIndex [
            0,1,2,-1,2,1,3,-1,4,5,0,-1,0,5,6,-1,0,6,1,-1,1,6,7,-1,4,8,5,-1,5,8,9,-1,5,9,10,-1,10,9,11,-1,10,11,12,-1,12,13,10,-1,10,13,2,-1,10,2,14,-1,14,2,3,-1,14,3,15,-1,10,14,16,-1,16,14,17,-1,5,10,18,-1,18,10,16,-1,19,6,20,-1,20,6,5,-1,20,5,18,-1,7,6,21,-1,21,6,19,-1,1,7,22,-1,22,7,21,-1,23,3,24,-1,24,3,1,-1,24,1,22,-1,15,3,25,-1,25,3,23,-1,14,15,17,-1,17,15,25,-1,0,2,26,-1,26,2,27,-1,2,13,27,-1,27,13,28,-1,11,29,30,-1,11,30,12,-1,12,30,28,-1,12,28,13,-1,11,9,29,-1,29,9,31,-1,4,32,33,-1,4,33,8,-1,8,33,31,-1,8,31,9,-1,4,0,32,-1,32,0,26,-1,
        ]
    }
}
Shape{
    appearance Appearance {
        material  Material {
            diffuseColor 0.4 0.4 0.4
            specularColor 0.5019607843137255 0.5019607843137255 0.5019607843137255
            ambientIntensity 0.502
            transparency 0.0
            shininess 0.5
        }
    }
    geometry IndexedFaceSet {
        ccw TRUE
        solid FALSE
        coord DEF co Coordinate {
            point [
                1.498 0.1759 0.8543, 1.498 0.1757 0.8543, 1.498 0.1763 0.8521, 1.498 0.1754 0.8523, 1.498 0.1767 0.8507, 1.498 0.1749 0.8507, 1.498 0.1844 0.8297, 1.498 0.1673 0.8297
            ]
        }
        coordIndex [
            0,1,2,-1,2,1,3,-1,2,3,4,-1,4,3,5,-1,4,5,6,-1,6,5,7,-1,
        ]
    }
}
Shape{
    appearance Appearance {
        material  Material {
            diffuseColor 1.0 1.0 1.0
            specularColor 0.5019607843137255 0.5019607843137255 0.5019607843137255
            ambientIntensity 1.0
            transparency 0.0
            shininess 0.5
        }
    }
    geometry IndexedFaceSet {
        ccw TRUE
        solid FALSE
        coord DEF co Coordinate {
            point [
                1.502 0.0225 0.7354, 1.502 0.0225 0.7296, 1.498 0.0225 0.7354, 1.498 0.0225 0.7296, 1.502 0.0018 0.7354, 1.498 0.0018 0.7354, 1.502 0.0018 0.7525, 1.498 0.0018 0.7525, 1.502 0.0199 0.7525, 1.498 0.0199 0.7525, 1.502 0.0199 0.7583, 1.498 0.0199 0.7583, 1.502 0.0018 0.7583, 1.498 0.0018 0.7583, 1.502 0.0018 0.7745, 1.498 0.0018 0.7745, 1.502 0.0214 0.7745, 1.498 0.0214 0.7745, 1.502 0.0214 0.7803, 1.498 0.0214 0.7803, 1.502 -0.0047 0.7803, 1.498 -0.0047 0.7803, 1.502 -0.0047 0.7296, 1.498 -0.0047 0.7296, 1.502 0.0359 0.75, 1.502 0.0377 0.7451, 1.502 0.0393 0.7459, 1.502 0.0512 0.7352, 1.502 0.0514 0.7352, 1.502 0.051 0.7411, 1.502 0.0514 0.7439, 1.502 0.0577 0.7529, 1.502 0.0514 0.7443, 1.502 0.0514 0.7478, 1.502 0.0514 0.7296, 1.502 0.0577 0.7296, 1.502 0.0406 0.7511, 1.502 0.0429 0.7466, 1.502 0.0514 0.7526, 1.502 0.0511 0.7554, 1.502 0.0572 0.7578, 1.502 0.0505 0.7577, 1.502 0.0562 0.7606, 1.502 0.0497 0.759, 1.502 0.0549 0.7627, 1.502 0.0488 0.76, 1.502 0.0532 0.7643, 1.502 0.0477 0.7608, 1.502 0.0511 0.7655, 1.502 0.0462 0.7613, 1.502 0.0484 0.7663, 1.502 0.044 0.7615, 1.502 0.0446 0.7667, 1.502 0.0402 0.7611, 1.502 0.0383 0.7659, 1.502 0.0362 0.7597, 1.502 0.0336 0.7641, 1.502 0.0322 0.7571, 1.502 0.0322 0.7633, 1.502 0.05 0.7388, 1.502 0.0486 0.7369, 1.502 0.0502 0.7337, 1.502 0.0479 0.7361, 1.502 0.0482 0.7316, 1.502 0.0461 0.7349, 1.502 0.046 0.7301, 1.502 0.0441 0.7342, 1.502 0.0434 0.7291, 1.502 0.0418 0.734, 1.502 0.0401 0.7288, 1.502 0.0396 0.7342, 1.502 0.0363 0.7292, 1.502 0.0382 0.7347, 1.502 0.0339 0.7301, 1.502 0.0369 0.7356, 1.502 0.0317 0.7316, 1.502 0.0364 0.7361, 1.502 0.0367 0.7444, 1.502 0.0332 0.7486, 1.502 0.036 0.7435, 1.502 0.0312 0.7469, 1.502 0.0354 0.7423, 1.502 0.0299 0.7451, 1.502 0.0351 0.7408, 1.502 0.029 0.7429, 1.502 0.0286 0.7401, 1.502 0.0351 0.7398, 1.502 0.0286 0.7393, 1.502 0.0352 0.7384, 1.502 0.0289 0.7364, 1.502 0.0356 0.7372, 1.502 0.0297 0.7343, 1.502 0.031 0.7323, 1.498 0.0446 0.7667, 1.498 0.0383 0.7659, 1.498 0.0336 0.7641, 1.498 0.0322 0.7633, 1.498 0.0322 0.7571, 1.498 0.0362 0.7597, 1.498 0.0402 0.7611, 1.498 0.044 0.7615, 1.498 0.0462 0.7613, 1.498 0.0477 0.7608, 1.498 0.0488 0.76, 1.498 0.0497 0.759, 1.498 0.0505 0.7577, 1.498 0.0511 0.7554, 1.498 0.0514 0.7526, 1.498 0.0406 0.7511, 1.498 0.0359 0.75, 1.498 0.0332 0.7486, 1.498 0.0312 0.7469, 1.498 0.0299 0.7451, 1.498 0.029 0.7429, 1.498 0.0286 0.7401, 1.498 0.0286 0.7393, 1.498 0.0289 0.7364, 1.498 0.0297 0.7343, 1.498 0.031 0.7323, 1.498 0.0317 0.7316, 1.498 0.0401 0.7288, 1.498 0.0364 0.7292, 1.498 0.0363 0.7292, 1.498 0.0339 0.7301, 1.498 0.0434 0.7291, 1.498 0.0436 0.7292, 1.498 0.046 0.7301, 1.498 0.0482 0.7316, 1.498 0.0502 0.7337, 1.498 0.0512 0.7352, 1.498 0.0514 0.7352, 1.498 0.0514 0.7296, 1.498 0.0577 0.7296, 1.498 0.0577 0.7529, 1.498 0.0572 0.7578, 1.498 0.0562 0.7606, 1.498 0.0549 0.7627, 1.498 0.0532 0.7643, 1.498 0.0511 0.7655, 1.498 0.0484 0.7663, 1.498 0.0367 0.7444, 1.498 0.0377 0.7451, 1.498 0.0393 0.7459, 1.498 0.0429 0.7466, 1.498 0.0351 0.7398, 1.498 0.0351 0.7408, 1.498 0.0354 0.7423, 1.498 0.036 0.7435, 1.498 0.0369 0.7356, 1.498 0.0364 0.7361, 1.498 0.0356 0.7372, 1.498 0.0352 0.7384, 1.498 0.0418 0.734, 1.498 0.0396 0.7342, 1.498 0.0382 0.7347, 1.498 0.0486 0.7369, 1.498 0.0479 0.7361, 1.498 0.0461 0.7349, 1.498 0.0441 0.7342, 1.498 0.0514 0.7443, 1.498 0.0514 0.7439, 1.498 0.051 0.7411, 1.498 0.05 0.7388, 1.498 0.0514 0.7478
            ]
        }
        coordIndex [
            0,1,2,-1,2,1,3,-1,4,0,5,-1,5,0,2,-1,6,4,7,-1,7,4,5,-1,8,6,9,-1,9,6,7,-1,10,8,11,-1,11,8,9,-1,12,10,13,-1,13,10,11,-1,14,12,15,-1,15,12,13,-1,16,14,17,-1,17,14,15,-1,18,16,19,-1,19,16,17,-1,20,18,21,-1,21,18,19,-1,22,20,23,-1,23,20,21,-1,1,22,3,-1,3,22,23,-1,8,10,6,-1,6,10,12,-1,1,0,22,-1,22,0,4,-1,16,18,14,-1,14,18,20,-1,14,20,12,-1,12,20,22,-1,12,22,6,-1,6,22,4,-1,24,25,26,-1,27,28,29,-1,30,31,32,-1,32,31,33,-1,34,35,28,-1,28,35,31,-1,28,31,29,-1,29,31,30,-1,24,26,36,-1,36,26,37,-1,36,37,38,-1,37,33,38,-1,38,33,31,-1,38,31,39,-1,39,31,40,-1,39,40,41,-1,41,40,42,-1,41,42,43,-1,43,42,44,-1,43,44,45,-1,45,44,46,-1,45,46,47,-1,47,46,48,-1,47,48,49,-1,49,48,50,-1,49,50,51,-1,51,50,52,-1,51,52,53,-1,53,52,54,-1,53,54,55,-1,55,54,56,-1,55,56,57,-1,57,56,58,-1,29,59,27,-1,27,59,60,-1,27,60,61,-1,61,60,62,-1,61,62,63,-1,63,62,64,-1,63,64,65,-1,65,64,66,-1,65,66,67,-1,67,66,68,-1,67,68,69,-1,69,68,70,-1,69,70,71,-1,71,70,72,-1,71,72,73,-1,73,72,74,-1,73,74,75,-1,75,74,76,-1,25,24,77,-1,77,24,78,-1,77,78,79,-1,79,78,80,-1,79,80,81,-1,81,80,82,-1,81,82,83,-1,82,84,83,-1,83,84,85,-1,83,85,86,-1,86,85,87,-1,86,87,88,-1,88,87,89,-1,88,89,90,-1,90,89,91,-1,90,91,76,-1,76,91,92,-1,76,92,75,-1,52,93,94,-1,52,94,54,-1,54,94,95,-1,54,95,56,-1,56,95,96,-1,56,96,58,-1,57,58,97,-1,97,58,96,-1,57,97,98,-1,57,98,55,-1,55,98,99,-1,55,99,53,-1,53,99,100,-1,53,100,51,-1,51,100,101,-1,51,101,49,-1,49,101,102,-1,49,102,47,-1,47,102,103,-1,47,103,45,-1,45,103,104,-1,45,104,43,-1,43,104,105,-1,43,105,41,-1,41,105,106,-1,41,106,39,-1,39,106,107,-1,39,107,38,-1,36,38,108,-1,108,38,107,-1,36,108,109,-1,36,109,24,-1,24,109,110,-1,24,110,78,-1,78,110,111,-1,78,111,80,-1,80,111,112,-1,80,112,82,-1,82,112,113,-1,82,113,84,-1,84,113,114,-1,84,114,85,-1,85,114,115,-1,85,115,87,-1,87,115,116,-1,87,116,89,-1,89,116,117,-1,89,117,91,-1,91,117,118,-1,91,118,92,-1,92,118,119,-1,92,119,75,-1,120,69,121,-1,121,69,71,-1,121,71,122,-1,122,71,73,-1,122,73,123,-1,123,73,75,-1,123,75,119,-1,69,120,124,-1,69,124,67,-1,67,124,125,-1,67,125,65,-1,125,126,65,-1,65,126,127,-1,65,127,63,-1,63,127,128,-1,63,128,61,-1,61,128,129,-1,61,129,27,-1,28,27,130,-1,130,27,129,-1,34,28,131,-1,131,28,130,-1,35,34,132,-1,132,34,131,-1,31,35,133,-1,133,35,132,-1,31,133,134,-1,31,134,40,-1,40,134,135,-1,40,135,42,-1,42,135,136,-1,42,136,44,-1,44,136,137,-1,44,137,46,-1,46,137,138,-1,46,138,48,-1,48,138,139,-1,48,139,50,-1,50,139,93,-1,50,93,52,-1,77,140,141,-1,77,141,25,-1,25,141,142,-1,25,142,26,-1,26,142,143,-1,26,143,37,-1,86,144,145,-1,86,145,83,-1,83,145,146,-1,83,146,81,-1,81,146,147,-1,81,147,79,-1,79,147,140,-1,79,140,77,-1,74,148,149,-1,74,149,76,-1,76,149,150,-1,76,150,90,-1,90,150,151,-1,90,151,88,-1,88,151,144,-1,88,144,86,-1,68,152,153,-1,68,153,70,-1,70,153,154,-1,70,154,72,-1,72,154,148,-1,72,148,74,-1,60,155,156,-1,60,156,62,-1,62,156,157,-1,62,157,64,-1,64,157,158,-1,64,158,66,-1,66,158,152,-1,66,152,68,-1,32,159,160,-1,32,160,30,-1,30,160,161,-1,30,161,29,-1,29,161,162,-1,29,162,59,-1,59,162,155,-1,59,155,60,-1,32,33,159,-1,159,33,163,-1,33,37,163,-1,163,37,143,-1,
        ]
    }
}
Shape{
    appearance Appearance {
        material  Material {
            diffuseColor 0.4 0.4 0.4
            specularColor 0.5019607843137255 0.5019607843137255 0.5019607843137255
            ambientIntensity 0.502
            transparency 0.0
            shininess 0.5
        }
    }
    geometry IndexedFaceSet {
        ccw TRUE
        solid FALSE
        coord DEF co Coordinate {
            point [
                1.498 0.0514 0.7478, 1.498 0.0429 0.7466, 1.498 0.0514 0.7443, 1.498 0.0393 0.7459, 1.498 0.0377 0.7451, 1.498 0.0367 0.7444, 1.498 0.0514 0.7439, 1.498 0.051 0.7411, 1.498 0.036 0.7435, 1.498 0.05 0.7388, 1.498 0.0364 0.7361, 1.498 0.0369 0.7356, 1.498 0.0479 0.7361, 1.498 0.0356 0.7372, 1.498 0.0461 0.7349, 1.498 0.0441 0.7342, 1.498 0.0418 0.734, 1.498 0.0354 0.7423, 1.498 0.0351 0.7408, 1.498 0.0486 0.7369, 1.498 0.0351 0.7398, 1.498 0.0352 0.7384, 1.498 0.0382 0.7347, 1.498 0.0396 0.7342
            ]
        }
        coordIndex [
            0,1,2,-1,2,1,3,-1,3,4,2,-1,2,4,5,-1,2,5,6,-1,6,5,7,-1,7,5,8,-1,7,8,9,-1,10,11,12,-1,10,12,13,-1,14,12,15,-1,15,12,16,-1,8,17,9,-1,9,17,18,-1,9,18,19,-1,19,18,20,-1,19,20,12,-1,12,20,21,-1,12,21,13,-1,11,22,12,-1,12,22,23,-1,12,23,16,-1,
        ]
    }
}
Shape{
    appearance Appearance {
        material  Material {
            diffuseColor 1.0 1.0 1.0
            specularColor 0.5019607843137255 0.5019607843137255 0.5019607843137255
            ambientIntensity 1.0
            transparency 0.0
            shininess 0.5
        }
    }
    geometry IndexedFaceSet {
        ccw TRUE
        solid FALSE
        coord DEF co Coordinate {
            point [
                1.498 0.0663 0.7374, 1.502 0.0663 0.7374, 1.502 0.0688 0.7359, 1.502 0.0768 0.7339, 1.498 0.0768 0.7339, 1.498 0.0728 0.7344, 1.502 0.0728 0.7344, 1.498 0.0693 0.7357, 1.498 0.0688 0.7359, 1.502 0.0663 0.7309, 1.498 0.0663 0.7309, 1.498 0.0693 0.7299, 1.502 0.0709 0.7293, 1.498 0.0762 0.7288, 1.502 0.0762 0.7288, 1.498 0.072 0.7292, 1.498 0.0709 0.7293, 1.498 0.0802 0.7292, 1.502 0.0814 0.7293, 1.498 0.0814 0.7293, 1.498 0.0849 0.7305, 1.502 0.0849 0.7305, 1.498 0.0867 0.7316, 1.502 0.0867 0.7316, 1.498 0.0885 0.7332, 1.502 0.0885 0.7332, 1.498 0.0897 0.7349, 1.502 0.0897 0.7349, 1.498 0.0905 0.7369, 1.502 0.0905 0.7369, 1.498 0.0908 0.7395, 1.502 0.0908 0.7395, 1.498 0.0905 0.7418, 1.502 0.0905 0.7418, 1.498 0.0898 0.7437, 1.502 0.0898 0.7437, 1.498 0.0887 0.7455, 1.502 0.0887 0.7455, 1.498 0.0871 0.7468, 1.502 0.0871 0.7468, 1.498 0.0829 0.7492, 1.502 0.0829 0.7492, 1.498 0.0805 0.7501, 1.502 0.0805 0.7501, 1.498 0.0765 0.7519, 1.502 0.0765 0.7519, 1.498 0.0743 0.7533, 1.502 0.0743 0.7533, 1.498 0.0737 0.7539, 1.502 0.0737 0.7539, 1.498 0.0732 0.7548, 1.502 0.0732 0.7548, 1.498 0.073 0.7558, 1.502 0.073 0.7558, 1.498 0.0729 0.7566, 1.502 0.0729 0.7566, 1.498 0.073 0.7576, 1.502 0.073 0.7576, 1.498 0.0733 0.7585, 1.502 0.0733 0.7585, 1.498 0.0739 0.7593, 1.502 0.0739 0.7593, 1.498 0.0748 0.7602, 1.502 0.0748 0.7602, 1.498 0.0763 0.7609, 1.502 0.0763 0.7609, 1.498 0.078 0.7614, 1.502 0.078 0.7614, 1.498 0.0798 0.7615, 1.502 0.0798 0.7615, 1.498 0.084 0.761, 1.502 0.084 0.761, 1.498 0.0876 0.7597, 1.502 0.0876 0.7597, 1.498 0.0891 0.7589, 1.502 0.0891 0.7589, 1.502 0.0891 0.7651, 1.498 0.0891 0.7651, 1.498 0.084 0.7664, 1.502 0.084 0.7664, 1.498 0.0805 0.7667, 1.502 0.0805 0.7667, 1.498 0.0758 0.7662, 1.502 0.0758 0.7662, 1.498 0.0723 0.7649, 1.502 0.0723 0.7649, 1.498 0.0704 0.7638, 1.502 0.0704 0.7638, 1.498 0.0693 0.7627, 1.502 0.0686 0.7621, 1.498 0.0686 0.7621, 1.498 0.0674 0.7604, 1.502 0.0674 0.7604, 1.498 0.0666 0.7583, 1.502 0.0666 0.7583, 1.498 0.0664 0.7561, 1.502 0.0664 0.7561, 1.498 0.0666 0.7536, 1.502 0.0666 0.7536, 1.498 0.0673 0.7517, 1.502 0.0673 0.7517, 1.498 0.0682 0.7503, 1.502 0.0682 0.7503, 1.498 0.076 0.7455, 1.502 0.076 0.7455, 1.502 0.0722 0.7473, 1.498 0.0692 0.7492, 1.502 0.0692 0.7492, 1.498 0.0693 0.7492, 1.498 0.0722 0.7473, 1.498 0.0802 0.7438, 1.502 0.0802 0.7438, 1.498 0.0826 0.7423, 1.502 0.0826 0.7423, 1.498 0.0834 0.7415, 1.502 0.0834 0.7415, 1.498 0.0839 0.7406, 1.502 0.0839 0.7406, 1.498 0.0842 0.7396, 1.502 0.0842 0.7396, 1.498 0.0843 0.7388, 1.502 0.0843 0.7388, 1.498 0.0841 0.7376, 1.502 0.0841 0.7376, 1.498 0.0838 0.7367, 1.502 0.0838 0.7367, 1.498 0.0833 0.7359, 1.502 0.0833 0.7359, 1.498 0.0825 0.7353, 1.502 0.0825 0.7353, 1.498 0.082 0.7349, 1.502 0.082 0.7349, 1.498 0.0803 0.7343, 1.502 0.0803 0.7343, 1.498 0.0771 0.7339, 1.502 0.0771 0.7339, 1.502 0.1223 0.7658, 1.502 0.1289 0.7658, 1.498 0.1223 0.7658, 1.498 0.1289 0.7658, 1.502 0.1124 0.7386, 1.498 0.1124 0.7386, 1.498 0.1119 0.7369, 1.502 0.1119 0.7369, 1.498 0.1116 0.7356, 1.502 0.1116 0.7356, 1.502 0.1114 0.7356, 1.498 0.1114 0.7356, 1.502 0.1107 0.7386, 1.498 0.1107 0.7386, 1.502 0.1012 0.7658, 1.498 0.1043 0.757, 1.498 0.1012 0.7658, 1.502 0.0941 0.7658, 1.498 0.0941 0.7658, 1.502 0.1083 0.7297, 1.498 0.1043 0.74, 1.498 0.1083 0.7297, 1.498 0.1055 0.7231, 1.502 0.1055 0.7231, 1.498 0.1081 0.7292, 1.498 0.1043 0.7208, 1.498 0.1043 0.7208, 1.502 0.1031 0.7195, 1.502 0.1043 0.7208, 1.498 0.1031 0.7195, 1.498 0.1019 0.7187, 1.502 0.1019 0.7187, 1.498 0.1005 0.7182, 1.502 0.1005 0.7182, 1.498 0.099 0.718, 1.502 0.099 0.718, 1.498 0.0967 0.7183, 1.502 0.0967 0.7183, 1.498 0.0954 0.7187, 1.502 0.0954 0.7187, 1.502 0.0954 0.7131, 1.498 0.0954 0.7131, 1.498 0.0981 0.7126, 1.502 0.0981 0.7126, 1.498 0.0995 0.7126, 1.502 0.0995 0.7126, 1.498 0.1021 0.7129, 1.502 0.1021 0.7129, 1.498 0.1043 0.7137, 1.502 0.1046 0.7138, 1.498 0.1046 0.7138, 1.498 0.1068 0.7154, 1.502 0.1068 0.7154, 1.498 0.1072 0.7158, 1.502 0.1072 0.7158, 1.498 0.1095 0.7185, 1.502 0.1095 0.7185, 1.498 0.1124 0.7241, 1.502 0.1124 0.7241, 1.498 0.1144 0.7292, 1.502 0.163 0.7354, 1.502 0.163 0.7296, 1.498 0.163 0.7354, 1.498 0.163 0.7296, 1.502 0.1423 0.7354, 1.498 0.1517 0.7354, 1.498 0.1423 0.7354, 1.502 0.1423 0.7525, 1.498 0.1423 0.7525, 1.502 0.1604 0.7525, 1.498 0.1517 0.7525, 1.498 0.1604 0.7525, 1.502 0.1604 0.7583, 1.498 0.1604 0.7583, 1.498 0.1423 0.7583, 1.502 0.1423 0.7583, 1.498 0.1517 0.7583, 1.502 0.1423 0.7745, 1.498 0.1423 0.7745, 1.498 0.1618 0.7745, 1.502 0.1618 0.7745, 1.498 0.1517 0.7745, 1.502 0.1618 0.7803, 1.498 0.1618 0.7803, 1.498 0.1357 0.7803, 1.502 0.1357 0.7803, 1.498 0.1517 0.7803, 1.502 0.1357 0.7296, 1.498 0.1357 0.7296, 1.498 0.1517 0.7296, 1.502 0.2028 0.7683, 1.502 0.2082 0.7716, 1.502 0.2014 0.7697, 1.502 0.2062 0.7736, 1.502 0.1975 0.7723, 1.502 0.2011 0.7771, 1.502 0.1931 0.7738, 1.502 0.195 0.7794, 1.502 0.1868 0.7745, 1.502 0.187 0.7803, 1.502 0.1791 0.7745, 1.502 0.1726 0.7803, 1.502 0.1791 0.7354, 1.502 0.1726 0.7296, 1.502 0.1865 0.7354, 1.502 0.1865 0.7296, 1.502 0.1931 0.7361, 1.502 0.1939 0.7304, 1.502 0.1974 0.7377, 1.502 0.1999 0.7324, 1.502 0.2007 0.74, 1.502 0.205 0.7356, 1.502 0.2015 0.7407, 1.502 0.2062 0.7367, 1.502 0.2042 0.744, 1.502 0.21 0.7413, 1.502 0.2059 0.7478, 1.502 0.2125 0.7465, 1.502 0.2068 0.7526, 1.502 0.2137 0.7525, 1.502 0.207 0.7554, 1.502 0.2138 0.7556, 1.502 0.2062 0.7618, 1.502 0.2131 0.7622, 1.502 0.2048 0.7655, 1.502 0.2113 0.7671, 1.498 0.1865 0.7296, 1.498 0.1726 0.7296, 1.498 0.1939 0.7304, 1.498 0.1999 0.7324, 1.498 0.205 0.7356, 1.498 0.2062 0.7367, 1.498 0.21 0.7413, 1.498 0.2125 0.7465, 1.498 0.2137 0.7525, 1.498 0.2138 0.7556, 1.498 0.2131 0.7622, 1.498 0.2113 0.7671, 1.498 0.2082 0.7716, 1.498 0.2062 0.7736, 1.498 0.2011 0.7771, 1.498 0.195 0.7794, 1.498 0.187 0.7803, 1.498 0.1726 0.7803, 1.498 0.1868 0.7745, 1.498 0.1791 0.7745, 1.498 0.1791 0.7354, 1.498 0.1865 0.7354, 1.498 0.2015 0.7407, 1.498 0.2007 0.74, 1.498 0.1974 0.7377, 1.498 0.1931 0.7361, 1.498 0.207 0.7554, 1.498 0.2068 0.7526, 1.498 0.2059 0.7478, 1.498 0.2042 0.744, 1.498 0.2014 0.7697, 1.498 0.2028 0.7683, 1.498 0.2048 0.7655, 1.498 0.2062 0.7618, 1.498 0.1931 0.7738, 1.498 0.1975 0.7723
            ]
        }
        coordIndex [
            0,1,2,-1,3,4,5,-1,3,5,6,-1,6,5,7,-1,6,7,2,-1,2,7,8,-1,2,8,0,-1,9,1,10,-1,10,1,0,-1,10,11,9,-1,9,11,12,-1,13,14,15,-1,15,14,12,-1,15,12,16,-1,16,12,11,-1,13,17,14,-1,14,17,18,-1,17,19,18,-1,18,19,20,-1,18,20,21,-1,21,20,22,-1,21,22,23,-1,23,22,24,-1,23,24,25,-1,25,24,26,-1,25,26,27,-1,27,26,28,-1,27,28,29,-1,29,28,30,-1,29,30,31,-1,31,30,32,-1,31,32,33,-1,33,32,34,-1,33,34,35,-1,35,34,36,-1,35,36,37,-1,37,36,38,-1,37,38,39,-1,39,38,40,-1,39,40,41,-1,41,40,42,-1,41,42,43,-1,43,42,44,-1,43,44,45,-1,45,44,46,-1,45,46,47,-1,47,46,48,-1,47,48,49,-1,49,48,50,-1,49,50,51,-1,51,50,52,-1,51,52,53,-1,53,52,54,-1,53,54,55,-1,55,54,56,-1,55,56,57,-1,57,56,58,-1,57,58,59,-1,59,58,60,-1,59,60,61,-1,61,60,62,-1,61,62,63,-1,63,62,64,-1,63,64,65,-1,65,64,66,-1,65,66,67,-1,67,66,68,-1,67,68,69,-1,69,68,70,-1,69,70,71,-1,71,70,72,-1,71,72,73,-1,73,72,74,-1,73,74,75,-1,76,75,77,-1,77,75,74,-1,76,77,78,-1,76,78,79,-1,79,78,80,-1,79,80,81,-1,81,80,82,-1,81,82,83,-1,83,82,84,-1,83,84,85,-1,85,84,86,-1,85,86,87,-1,86,88,87,-1,87,88,89,-1,88,90,89,-1,89,90,91,-1,89,91,92,-1,92,91,93,-1,92,93,94,-1,94,93,95,-1,94,95,96,-1,96,95,97,-1,96,97,98,-1,98,97,99,-1,98,99,100,-1,100,99,101,-1,100,101,102,-1,103,104,105,-1,102,101,106,-1,102,106,107,-1,107,106,108,-1,107,108,105,-1,105,108,109,-1,105,109,103,-1,104,103,110,-1,104,110,111,-1,111,110,112,-1,111,112,113,-1,113,112,114,-1,113,114,115,-1,115,114,116,-1,115,116,117,-1,117,116,118,-1,117,118,119,-1,119,118,120,-1,119,120,121,-1,121,120,122,-1,121,122,123,-1,123,122,124,-1,123,124,125,-1,125,124,126,-1,125,126,127,-1,127,126,128,-1,127,128,129,-1,129,128,130,-1,129,130,131,-1,131,130,132,-1,131,132,133,-1,133,132,134,-1,133,134,135,-1,135,134,4,-1,135,4,3,-1,61,63,85,-1,85,63,83,-1,111,43,104,-1,104,43,45,-1,21,23,127,-1,127,23,25,-1,127,25,125,-1,125,25,27,-1,125,27,123,-1,123,27,29,-1,123,29,121,-1,121,29,31,-1,121,31,119,-1,119,31,33,-1,119,33,117,-1,117,33,35,-1,117,35,115,-1,115,35,37,-1,115,37,113,-1,113,37,39,-1,113,39,111,-1,111,39,41,-1,111,41,43,-1,14,3,12,-1,12,3,6,-1,12,6,9,-1,9,6,2,-1,9,2,1,-1,63,65,83,-1,83,65,67,-1,83,67,81,-1,81,67,69,-1,81,69,79,-1,79,69,71,-1,79,71,76,-1,76,71,73,-1,76,73,75,-1,127,129,21,-1,21,129,131,-1,21,131,18,-1,18,131,133,-1,18,133,14,-1,14,133,135,-1,14,135,3,-1,85,87,61,-1,61,87,89,-1,61,89,59,-1,59,89,92,-1,59,92,57,-1,57,92,94,-1,57,94,55,-1,55,94,96,-1,55,96,53,-1,53,96,98,-1,53,98,51,-1,51,98,100,-1,51,100,49,-1,49,100,102,-1,49,102,47,-1,47,102,107,-1,47,107,45,-1,45,107,105,-1,45,105,104,-1,136,137,138,-1,138,137,139,-1,140,136,141,-1,141,136,138,-1,140,141,142,-1,140,142,143,-1,143,142,144,-1,143,144,145,-1,146,145,147,-1,147,145,144,-1,148,146,149,-1,149,146,147,-1,148,149,150,-1,150,149,151,-1,150,151,152,-1,153,150,154,-1,154,150,152,-1,153,154,155,-1,155,154,156,-1,155,156,157,-1,158,159,160,-1,160,159,155,-1,160,155,157,-1,159,158,161,-1,162,163,161,-1,161,163,164,-1,161,164,159,-1,162,165,163,-1,163,165,166,-1,163,166,167,-1,167,166,168,-1,167,168,169,-1,169,168,170,-1,169,170,171,-1,171,170,172,-1,171,172,173,-1,173,172,174,-1,173,174,175,-1,176,175,177,-1,177,175,174,-1,176,177,178,-1,176,178,179,-1,179,178,180,-1,179,180,181,-1,181,180,182,-1,181,182,183,-1,183,182,184,-1,183,184,185,-1,184,186,185,-1,185,186,187,-1,185,187,188,-1,188,187,189,-1,188,189,190,-1,190,189,191,-1,190,191,192,-1,192,191,193,-1,192,193,194,-1,139,137,195,-1,195,137,194,-1,195,194,193,-1,143,145,194,-1,137,136,194,-1,194,136,140,-1,194,140,143,-1,150,153,148,-1,148,153,155,-1,148,155,146,-1,192,164,190,-1,190,164,163,-1,175,176,173,-1,173,176,179,-1,173,179,171,-1,171,179,181,-1,171,181,169,-1,169,181,183,-1,169,183,167,-1,167,183,185,-1,167,185,163,-1,163,185,188,-1,163,188,190,-1,145,146,194,-1,194,146,155,-1,194,155,192,-1,192,155,159,-1,192,159,164,-1,196,197,198,-1,198,197,199,-1,196,198,200,-1,200,198,201,-1,200,201,202,-1,203,200,204,-1,204,200,202,-1,203,204,205,-1,205,204,206,-1,205,206,207,-1,208,205,209,-1,209,205,207,-1,210,211,212,-1,212,211,208,-1,212,208,209,-1,213,211,214,-1,214,211,210,-1,215,216,217,-1,217,216,213,-1,217,213,214,-1,218,216,219,-1,219,216,215,-1,220,221,222,-1,222,221,218,-1,222,218,219,-1,223,221,224,-1,224,221,220,-1,223,224,197,-1,197,224,225,-1,197,225,199,-1,216,218,213,-1,213,218,221,-1,213,221,211,-1,197,196,223,-1,223,196,200,-1,223,200,203,-1,205,208,203,-1,203,208,211,-1,203,211,223,-1,223,211,221,-1,226,227,228,-1,228,227,229,-1,228,229,230,-1,230,229,231,-1,230,231,232,-1,232,231,233,-1,232,233,234,-1,234,233,235,-1,234,235,236,-1,236,235,237,-1,236,237,238,-1,238,237,239,-1,238,239,240,-1,240,239,241,-1,240,241,242,-1,242,241,243,-1,242,243,244,-1,244,243,245,-1,244,245,246,-1,246,245,247,-1,246,247,248,-1,248,247,249,-1,248,249,250,-1,250,249,251,-1,250,251,252,-1,252,251,253,-1,252,253,254,-1,254,253,255,-1,254,255,256,-1,256,255,257,-1,256,257,258,-1,258,257,259,-1,258,259,260,-1,260,259,261,-1,260,261,226,-1,226,261,227,-1,241,239,262,-1,262,239,263,-1,241,262,264,-1,241,264,243,-1,243,264,265,-1,243,265,245,-1,245,265,266,-1,245,266,247,-1,247,266,267,-1,247,267,249,-1,249,267,268,-1,249,268,251,-1,251,268,269,-1,251,269,253,-1,253,269,270,-1,253,270,255,-1,255,270,271,-1,255,271,257,-1,257,271,272,-1,257,272,259,-1,259,272,273,-1,259,273,261,-1,261,273,274,-1,261,274,227,-1,227,274,275,-1,227,275,229,-1,229,275,276,-1,229,276,231,-1,231,276,277,-1,231,277,233,-1,233,277,278,-1,233,278,235,-1,237,235,279,-1,279,235,278,-1,239,237,263,-1,263,237,279,-1,234,236,280,-1,280,236,281,-1,236,238,281,-1,281,238,282,-1,238,240,282,-1,282,240,283,-1,248,284,285,-1,248,285,246,-1,246,285,286,-1,246,286,244,-1,244,286,287,-1,244,287,242,-1,242,287,283,-1,242,283,240,-1,256,288,289,-1,256,289,254,-1,254,289,290,-1,254,290,252,-1,252,290,291,-1,252,291,250,-1,250,291,284,-1,250,284,248,-1,228,292,293,-1,228,293,226,-1,226,293,294,-1,226,294,260,-1,260,294,295,-1,260,295,258,-1,258,295,288,-1,258,288,256,-1,234,280,296,-1,234,296,232,-1,232,296,297,-1,232,297,230,-1,230,297,292,-1,230,292,228,-1,
        ]
    }
}
Shape{
    appearance Appearance {
        material  Material {
            diffuseColor 0.4 0.4 0.4
            specularColor 0.5019607843137255 0.5019607843137255 0.5019607843137255
            ambientIntensity 0.502
            transparency 0.0
            shininess 0.5
        }
    }
    geometry IndexedFaceSet {
        ccw TRUE
        solid FALSE
        coord DEF co Coordinate {
            point [
                1.498 0.1791 0.7745, 1.498 0.1791 0.7354, 1.498 0.1868 0.7745, 1.498 0.1865 0.7354, 1.498 0.2007 0.74, 1.498 0.2015 0.7407, 1.498 0.1931 0.7361, 1.498 0.1974 0.7377, 1.498 0.2042 0.744, 1.498 0.2059 0.7478, 1.498 0.2068 0.7526, 1.498 0.207 0.7554, 1.498 0.2062 0.7618, 1.498 0.2048 0.7655, 1.498 0.2028 0.7683, 1.498 0.2014 0.7697, 1.498 0.1931 0.7738, 1.498 0.1975 0.7723
            ]
        }
        coordIndex [
            0,1,2,-1,2,1,3,-1,2,4,5,-1,3,6,2,-1,2,6,7,-1,2,7,4,-1,5,8,2,-1,2,8,9,-1,2,9,10,-1,10,11,2,-1,2,11,12,-1,2,12,13,-1,13,14,2,-1,2,14,15,-1,2,15,16,-1,16,15,17,-1,
        ]
    }
}
Shape{
    appearance Appearance {
        material  Material {
            diffuseColor 1.0 1.0 1.0
            specularColor 0.5019607843137255 0.5019607843137255 0.5019607843137255
            ambientIntensity 1.0
            transparency 0.0
            shininess 0.5
        }
    }
    geometry IndexedFaceSet {
        ccw TRUE
        solid FALSE
        coord DEF co Coordinate {
            point [
                1.502 0.2308 0.7492, 1.502 0.2288 0.7435, 1.502 0.2479 0.7492, 1.502 0.2499 0.7435, 1.502 0.2384 0.7703, 1.502 0.236 0.7803, 1.502 0.2167 0.7296, 1.502 0.2239 0.7296, 1.502 0.2389 0.7718, 1.502 0.2393 0.7738, 1.502 0.243 0.7803, 1.502 0.2394 0.7738, 1.502 0.2398 0.7717, 1.502 0.2402 0.7703, 1.502 0.2623 0.7296, 1.502 0.2551 0.7296, 1.498 0.243 0.7803, 1.498 0.2623 0.7296, 1.498 0.236 0.7803, 1.498 0.2167 0.7296, 1.498 0.2239 0.7296, 1.498 0.2288 0.7435, 1.498 0.2499 0.7435, 1.498 0.2551 0.7296, 1.498 0.2308 0.7492, 1.498 0.2479 0.7492, 1.498 0.2402 0.7703, 1.498 0.2394 0.7738, 1.498 0.2398 0.7717, 1.498 0.2393 0.7738, 1.498 0.2384 0.7703, 1.498 0.2389 0.7718
            ]
        }
        coordIndex [
            0,1,2,-1,2,1,3,-1,4,5,0,-1,0,5,6,-1,0,6,1,-1,1,6,7,-1,4,8,5,-1,5,8,9,-1,5,9,10,-1,10,9,11,-1,10,11,12,-1,12,13,10,-1,10,13,2,-1,10,2,14,-1,14,2,3,-1,14,3,15,-1,10,14,16,-1,16,14,17,-1,5,10,18,-1,18,10,16,-1,6,5,19,-1,19,5,18,-1,7,6,20,-1,20,6,19,-1,1,7,21,-1,21,7,20,-1,3,1,22,-1,22,1,21,-1,15,3,23,-1,23,3,22,-1,14,15,17,-1,17,15,23,-1,0,2,24,-1,24,2,25,-1,2,13,25,-1,25,13,26,-1,11,27,28,-1,11,28,12,-1,12,28,26,-1,12,26,13,-1,11,9,27,-1,27,9,29,-1,4,30,31,-1,4,31,8,-1,8,31,29,-1,8,29,9,-1,4,0,30,-1,30,0,24,-1,
        ]
    }
}
Shape{
    appearance Appearance {
        material  Material {
            diffuseColor 0.4 0.4 0.4
            specularColor 0.5019607843137255 0.5019607843137255 0.5019607843137255
            ambientIntensity 0.502
            transparency 0.0
            shininess 0.5
        }
    }
    geometry IndexedFaceSet {
        ccw TRUE
        solid FALSE
        coord DEF co Coordinate {
            point [
                1.498 0.2394 0.7738, 1.498 0.2393 0.7738, 1.498 0.2398 0.7717, 1.498 0.2389 0.7718, 1.498 0.2402 0.7703, 1.498 0.2384 0.7703, 1.498 0.2479 0.7492, 1.498 0.2308 0.7492
            ]
        }
        coordIndex [
            0,1,2,-1,2,1,3,-1,2,3,4,-1,4,3,5,-1,4,5,6,-1,6,5,7,-1,
        ]
    }
}
Shape{
    appearance Appearance {
        material  Material {
            diffuseColor 1.0 1.0 1.0
            specularColor 0.5019607843137255 0.5019607843137255 0.5019607843137255
            ambientIntensity 1.0
            transparency 0.0
            shininess 0.5
        }
    }
    geometry IndexedFaceSet {
        ccw TRUE
        solid FALSE
        coord DEF co Coordinate {
            point [
                1.502 -0.2287 0.7224, 1.502 -0.2233 0.7158, 1.502 -0.2319 0.7543, 1.502 -0.2383 0.8169, 1.502 -0.2303 0.8212, 1.502 -0.2321 0.8434, 1.502 -0.2096 0.8445, 1.502 -0.1984 0.8181, 1.502 -0.1929 0.8296, 1.502 -0.2398 0.7592, 1.502 -0.2369 0.7315, 1.502 -0.2323 0.7302, 1.502 -0.2179 0.8452, 1.502 -0.1954 0.7551, 1.502 -0.1921 0.7539, 1.502 -0.162 0.7453, 1.502 -0.1892 0.7519, 1.502 -0.1868 0.7493, 1.502 -0.1115 0.772, 1.502 -0.1227 0.7911, 1.502 -0.171 0.7659, 1.502 -0.1984 0.7554, 1.502 -0.2019 0.7549, 1.502 -0.2067 0.777, 1.502 -0.2051 0.7537, 1.502 -0.2147 0.774, 1.502 -0.2079 0.7517, 1.502 -0.222 0.7689, 1.502 -0.2093 0.7502, 1.502 -0.228 0.762, 1.502 -0.2112 0.7472, 1.502 -0.2123 0.7438, 1.502 -0.2124 0.7403, 1.502 -0.185 0.7757, 1.502 -0.1937 0.7779, 1.502 -0.1981 0.7781, 1.502 -0.1853 0.7464, 1.502 -0.1845 0.743, 1.502 -0.162 0.7417, 1.502 -0.1844 0.7397, 1.502 -0.1622 0.7378, 1.502 -0.0841 0.8047, 1.502 -0.0784 0.8009, 1.502 -0.0597 0.813, 1.502 -0.0737 0.7957, 1.502 -0.0523 0.8027, 1.502 -0.0704 0.7894, 1.502 -0.0479 0.7917, 1.502 -0.0463 0.7799, 1.502 -0.2022 0.8531, 1.502 -0.1848 0.8392, 1.502 -0.1937 0.8603, 1.502 -0.1752 0.8462, 1.502 -0.1849 0.8658, 1.502 -0.2214 0.8233, 1.502 -0.2175 0.8235, 1.502 -0.2137 0.845, 1.502 -0.2089 0.8225, 1.502 -0.2009 0.8195, 1.502 -0.1773 0.7716, 1.502 -0.0996 0.8077, 1.502 -0.0967 0.8077, 1.502 -0.082 0.8271, 1.502 -0.0904 0.807, 1.502 -0.0802 0.8266, 1.502 -0.0695 0.8213, 1.502 -0.0596 0.7457, 1.502 -0.0778 0.7586, 1.502 -0.0694 0.7374, 1.502 -0.0834 0.7546, 1.502 -0.0804 0.732, 1.502 -0.09 0.7521, 1.502 -0.0924 0.7294, 1.502 -0.0946 0.7514, 1.502 -0.1137 0.7294, 1.502 -0.1108 0.7514, 1.502 -0.1157 0.7298, 1.502 -0.2118 0.7369, 1.502 -0.2103 0.7339, 1.502 -0.0688 0.7825, 1.502 -0.0686 0.7796, 1.502 -0.0479 0.7671, 1.502 -0.0693 0.7732, 1.502 -0.0524 0.7557, 1.502 -0.0717 0.7667, 1.502 -0.0755 0.761, 1.502 -0.1014 0.8556, 1.502 -0.1156 0.8391, 1.502 -0.0895 0.8418, 1.502 -0.1075 0.8294, 1.502 -0.1019 0.8178, 1.502 -0.2525 0.7963, 1.502 -0.2762 0.7902, 1.502 -0.2536 0.7875, 1.502 -0.2763 0.7868, 1.502 -0.2531 0.7818, 1.502 -0.2745 0.7726, 1.502 -0.2505 0.773, 1.502 -0.2694 0.7592, 1.502 -0.2463 0.7658, 1.502 -0.2612 0.7475, 1.502 -0.2499 0.7379, 1.502 -0.2455 0.8382, 1.502 -0.2569 0.8302, 1.502 -0.2444 0.8115, 1.502 -0.2593 0.8279, 1.502 -0.2494 0.8043, 1.502 -0.268 0.8167, 1.502 -0.2738 0.8037, 1.502 -0.1643 0.7289, 1.502 -0.1853 0.7363, 1.502 -0.1686 0.7209, 1.502 -0.187 0.7332, 1.502 -0.1741 0.7148, 1.502 -0.1889 0.731, 1.502 -0.1813 0.7098, 1.502 -0.1917 0.729, 1.502 -0.1893 0.7067, 1.502 -0.1948 0.7277, 1.502 -0.1981 0.7056, 1.502 -0.1984 0.7273, 1.502 -0.1994 0.7057, 1.502 -0.199 0.7273, 1.502 -0.2079 0.707, 1.502 -0.2023 0.7278, 1.502 -0.2162 0.7105, 1.502 -0.2055 0.7292, 1.502 -0.2083 0.7313, 1.502 -0.1683 0.8722, 1.502 -0.1634 0.851, 1.502 -0.1505 0.8744, 1.502 -0.1501 0.8527, 1.502 -0.1356 0.8728, 1.502 -0.1378 0.8512, 1.502 -0.1175 0.8664, 1.502 -0.1265 0.8469, 1.502 -0.1164 0.8399, 1.502 -0.1126 0.7518, 1.502 -0.1213 0.7332, 1.502 -0.1204 0.7324, 1.502 -0.1115 0.7515, 1.502 -0.1181 0.7307, 1.502 -0.1241 0.7406, 1.502 -0.1238 0.7379, 1.502 -0.1229 0.7355, 1.502 -0.1158 0.7514, 1.502 -0.1182 0.7505, 1.502 -0.1241 0.742, 1.502 -0.1205 0.7489, 1.502 -0.1219 0.7472, 1.502 -0.1233 0.7448, 1.502 -0.113 0.7518, 1.498 -0.0463 0.7799, 1.498 -0.0479 0.7917, 1.498 -0.0491 0.7948, 1.498 -0.0523 0.8027, 1.498 -0.0597 0.813, 1.498 -0.0695 0.8213, 1.498 -0.0802 0.8266, 1.498 -0.082 0.8271, 1.498 -0.0895 0.8418, 1.498 -0.1014 0.8556, 1.498 -0.1097 0.8612, 1.498 -0.1175 0.8664, 1.498 -0.1356 0.8728, 1.498 -0.1505 0.8744, 1.498 -0.1937 0.8603, 1.498 -0.1923 0.8612, 1.498 -0.1849 0.8658, 1.498 -0.1683 0.8722, 1.498 -0.2022 0.8531, 1.498 -0.2096 0.8445, 1.498 -0.2137 0.845, 1.498 -0.2179 0.8452, 1.498 -0.2321 0.8434, 1.498 -0.2455 0.8382, 1.498 -0.2569 0.8302, 1.498 -0.2593 0.8279, 1.498 -0.2738 0.8037, 1.498 -0.268 0.8167, 1.498 -0.2754 0.7948, 1.498 -0.2762 0.7902, 1.498 -0.2763 0.7868, 1.498 -0.2745 0.7726, 1.498 -0.2694 0.7592, 1.498 -0.2612 0.7475, 1.498 -0.2499 0.7379, 1.498 -0.2369 0.7315, 1.498 -0.2323 0.7302, 1.498 -0.2319 0.7292, 1.498 -0.2287 0.7224, 1.498 -0.2233 0.7158, 1.498 -0.2162 0.7105, 1.498 -0.213 0.7091, 1.498 -0.2079 0.707, 1.498 -0.1994 0.7057, 1.498 -0.1981 0.7056, 1.498 -0.162 0.7417, 1.498 -0.1893 0.7067, 1.498 -0.1831 0.7091, 1.498 -0.1813 0.7098, 1.498 -0.1741 0.7148, 1.498 -0.1686 0.7209, 1.498 -0.1643 0.7289, 1.498 -0.1643 0.7292, 1.498 -0.1622 0.7378, 1.498 -0.162 0.7453, 1.498 -0.1115 0.772, 1.498 -0.1227 0.7911, 1.498 -0.171 0.7659, 1.498 -0.1773 0.7716, 1.498 -0.185 0.7757, 1.498 -0.1937 0.7779, 1.498 -0.1981 0.7781, 1.498 -0.2067 0.777, 1.498 -0.2147 0.774, 1.498 -0.222 0.7689, 1.498 -0.228 0.762, 1.498 -0.2319 0.7543, 1.498 -0.2398 0.7592, 1.498 -0.2463 0.7658, 1.498 -0.2505 0.773, 1.498 -0.2531 0.7818, 1.498 -0.2536 0.7875, 1.498 -0.2527 0.7948, 1.498 -0.2525 0.7963, 1.498 -0.2494 0.8043, 1.498 -0.2444 0.8115, 1.498 -0.2383 0.8169, 1.498 -0.2303 0.8212, 1.498 -0.2214 0.8233, 1.498 -0.2175 0.8235, 1.498 -0.2089 0.8225, 1.498 -0.2009 0.8195, 1.498 -0.1984 0.8181, 1.498 -0.1929 0.8296, 1.498 -0.1848 0.8392, 1.498 -0.1752 0.8462, 1.498 -0.1634 0.851, 1.498 -0.1501 0.8527, 1.498 -0.1378 0.8512, 1.498 -0.1265 0.8469, 1.498 -0.1164 0.8399, 1.498 -0.1156 0.8391, 1.498 -0.1075 0.8294, 1.498 -0.1019 0.8178, 1.498 -0.0996 0.8077, 1.498 -0.0967 0.8077, 1.498 -0.0904 0.807, 1.498 -0.0841 0.8047, 1.498 -0.0784 0.8009, 1.498 -0.0737 0.7957, 1.498 -0.0732 0.7948, 1.498 -0.0704 0.7894, 1.498 -0.0688 0.7825, 1.498 -0.0686 0.7796, 1.498 -0.0693 0.7732, 1.498 -0.0717 0.7667, 1.498 -0.0755 0.761, 1.498 -0.0778 0.7586, 1.498 -0.0834 0.7546, 1.498 -0.09 0.7521, 1.498 -0.0946 0.7514, 1.498 -0.1108 0.7514, 1.498 -0.1115 0.7515, 1.498 -0.1126 0.7518, 1.498 -0.113 0.7518, 1.498 -0.1158 0.7514, 1.498 -0.1182 0.7505, 1.498 -0.1205 0.7489, 1.498 -0.1219 0.7472, 1.498 -0.1233 0.7448, 1.498 -0.1241 0.742, 1.498 -0.1241 0.7406, 1.498 -0.1238 0.7379, 1.498 -0.1229 0.7355, 1.498 -0.1213 0.7332, 1.498 -0.1204 0.7324, 1.498 -0.1181 0.7307, 1.498 -0.1157 0.7298, 1.498 -0.1137 0.7294, 1.498 -0.0924 0.7294, 1.498 -0.0804 0.732, 1.498 -0.0694 0.7374, 1.498 -0.0596 0.7457, 1.498 -0.0524 0.7557, 1.498 -0.0479 0.7671, 1.498 -0.1984 0.7554, 1.498 -0.1954 0.7551, 1.498 -0.1921 0.7539, 1.498 -0.1892 0.7519, 1.498 -0.1868 0.7493, 1.498 -0.1853 0.7464, 1.498 -0.1845 0.743, 1.498 -0.1844 0.7397, 1.498 -0.1853 0.7363, 1.498 -0.187 0.7332, 1.498 -0.1889 0.731, 1.498 -0.1917 0.729, 1.498 -0.1948 0.7277, 1.498 -0.1984 0.7273, 1.498 -0.199 0.7273, 1.498 -0.2023 0.7278, 1.498 -0.2055 0.7292, 1.498 -0.2083 0.7313, 1.498 -0.2103 0.7339, 1.498 -0.2118 0.7369, 1.498 -0.2124 0.7403, 1.498 -0.2123 0.7438, 1.498 -0.2112 0.7472, 1.498 -0.2093 0.7502, 1.498 -0.2079 0.7517, 1.498 -0.2051 0.7537, 1.498 -0.2019 0.7549
            ]
        }
        coordIndex [
            0,1,2,-1,3,4,5,-1,6,7,8,-1,9,10,2,-1,2,10,11,-1,2,11,0,-1,5,4,12,-1,13,14,15,-1,15,14,16,-1,15,16,17,-1,18,19,15,-1,15,19,20,-1,15,20,13,-1,13,20,21,-1,22,23,24,-1,24,23,25,-1,24,25,26,-1,26,25,27,-1,26,27,28,-1,28,27,29,-1,28,29,30,-1,30,29,2,-1,30,2,31,-1,31,2,32,-1,33,34,22,-1,22,34,35,-1,22,35,23,-1,17,36,15,-1,15,36,37,-1,15,37,38,-1,38,37,39,-1,38,39,40,-1,41,42,43,-1,43,42,44,-1,43,44,45,-1,45,44,46,-1,45,46,47,-1,47,46,48,-1,6,8,49,-1,49,8,50,-1,49,50,51,-1,51,50,52,-1,51,52,53,-1,4,54,12,-1,12,54,55,-1,12,55,56,-1,56,55,57,-1,56,57,6,-1,6,57,58,-1,6,58,7,-1,21,20,22,-1,22,20,59,-1,22,59,33,-1,60,61,62,-1,62,61,63,-1,62,63,64,-1,64,63,41,-1,64,41,65,-1,65,41,43,-1,66,67,68,-1,68,67,69,-1,68,69,70,-1,70,69,71,-1,70,71,72,-1,72,71,73,-1,72,73,74,-1,74,73,75,-1,74,75,76,-1,32,2,77,-1,77,2,1,-1,77,1,78,-1,46,79,48,-1,48,79,80,-1,48,80,81,-1,81,80,82,-1,81,82,83,-1,83,82,84,-1,83,84,66,-1,66,84,85,-1,66,85,67,-1,86,87,88,-1,88,87,89,-1,88,89,62,-1,62,89,90,-1,62,90,60,-1,91,92,93,-1,93,92,94,-1,93,94,95,-1,95,94,96,-1,95,96,97,-1,97,96,98,-1,97,98,99,-1,99,98,100,-1,99,100,9,-1,9,100,101,-1,9,101,10,-1,5,102,3,-1,3,102,103,-1,3,103,104,-1,104,103,105,-1,104,105,106,-1,106,105,107,-1,106,107,91,-1,91,107,108,-1,91,108,92,-1,40,39,109,-1,109,39,110,-1,109,110,111,-1,111,110,112,-1,111,112,113,-1,113,112,114,-1,113,114,115,-1,115,114,116,-1,115,116,117,-1,117,116,118,-1,117,118,119,-1,119,118,120,-1,119,120,121,-1,121,120,122,-1,121,122,123,-1,123,122,124,-1,123,124,125,-1,125,124,126,-1,125,126,1,-1,1,126,127,-1,1,127,78,-1,53,52,128,-1,128,52,129,-1,128,129,130,-1,130,129,131,-1,130,131,132,-1,132,131,133,-1,132,133,134,-1,134,133,135,-1,134,135,86,-1,86,135,136,-1,86,136,87,-1,137,138,139,-1,75,140,76,-1,76,140,137,-1,76,137,141,-1,141,137,139,-1,142,143,137,-1,137,143,144,-1,137,144,138,-1,145,146,147,-1,146,148,147,-1,147,148,149,-1,147,149,150,-1,142,137,147,-1,147,137,151,-1,147,151,145,-1,48,152,153,-1,48,153,47,-1,47,153,154,-1,47,154,45,-1,154,155,45,-1,45,155,156,-1,45,156,43,-1,43,156,157,-1,43,157,65,-1,65,157,158,-1,65,158,64,-1,64,158,159,-1,64,159,62,-1,62,159,160,-1,62,160,88,-1,88,160,161,-1,88,161,86,-1,86,161,134,-1,134,161,162,-1,162,163,134,-1,134,163,164,-1,134,164,132,-1,132,164,165,-1,132,165,130,-1,166,51,167,-1,167,51,53,-1,167,53,168,-1,168,53,128,-1,168,128,169,-1,169,128,130,-1,169,130,165,-1,51,166,170,-1,51,170,49,-1,49,170,171,-1,49,171,6,-1,6,171,172,-1,6,172,56,-1,56,172,173,-1,56,173,12,-1,12,173,174,-1,12,174,5,-1,5,174,175,-1,5,175,102,-1,102,175,176,-1,102,176,103,-1,103,176,177,-1,103,177,105,-1,178,107,179,-1,179,107,105,-1,179,105,177,-1,180,92,178,-1,178,92,108,-1,178,108,107,-1,180,181,92,-1,92,181,182,-1,92,182,94,-1,94,182,183,-1,94,183,96,-1,96,183,184,-1,96,184,98,-1,98,184,185,-1,98,185,100,-1,100,185,186,-1,100,186,101,-1,101,186,187,-1,101,187,10,-1,10,187,188,-1,10,188,11,-1,11,188,189,-1,11,189,0,-1,189,190,0,-1,0,190,191,-1,0,191,1,-1,1,191,192,-1,1,192,125,-1,125,192,193,-1,125,193,123,-1,193,194,123,-1,123,194,195,-1,123,195,121,-1,121,195,196,-1,121,196,119,-1,197,38,40,-1,119,196,198,-1,119,198,117,-1,117,198,199,-1,117,199,115,-1,199,200,115,-1,115,200,201,-1,115,201,113,-1,113,201,202,-1,113,202,111,-1,111,202,203,-1,111,203,109,-1,109,203,204,-1,109,204,40,-1,40,204,205,-1,40,205,197,-1,15,38,206,-1,206,38,197,-1,18,15,207,-1,207,15,206,-1,19,18,208,-1,208,18,207,-1,20,19,209,-1,209,19,208,-1,20,209,210,-1,20,210,59,-1,59,210,211,-1,59,211,33,-1,33,211,212,-1,33,212,34,-1,34,212,213,-1,34,213,35,-1,35,213,214,-1,35,214,23,-1,23,214,215,-1,23,215,25,-1,25,215,216,-1,25,216,27,-1,27,216,217,-1,27,217,29,-1,29,217,218,-1,29,218,2,-1,2,218,219,-1,2,219,9,-1,9,219,220,-1,9,220,99,-1,99,220,221,-1,99,221,97,-1,97,221,222,-1,97,222,95,-1,95,222,223,-1,95,223,93,-1,223,224,93,-1,93,224,91,-1,224,225,91,-1,91,225,226,-1,91,226,106,-1,106,226,227,-1,106,227,104,-1,104,227,228,-1,104,228,3,-1,3,228,229,-1,3,229,4,-1,4,229,230,-1,4,230,54,-1,54,230,231,-1,54,231,55,-1,55,231,232,-1,55,232,57,-1,57,232,233,-1,57,233,58,-1,58,233,234,-1,58,234,7,-1,7,234,235,-1,7,235,8,-1,8,235,236,-1,8,236,50,-1,50,236,237,-1,50,237,52,-1,52,237,238,-1,52,238,129,-1,129,238,239,-1,129,239,131,-1,131,239,240,-1,131,240,133,-1,133,240,241,-1,133,241,135,-1,135,241,242,-1,135,242,136,-1,136,242,243,-1,136,243,87,-1,87,243,244,-1,87,244,89,-1,89,244,245,-1,89,245,90,-1,90,245,246,-1,90,246,60,-1,61,60,247,-1,247,60,246,-1,61,247,248,-1,61,248,63,-1,63,248,249,-1,63,249,41,-1,41,249,250,-1,41,250,42,-1,42,250,251,-1,42,251,44,-1,44,251,252,-1,44,252,46,-1,252,253,46,-1,46,253,254,-1,46,254,79,-1,79,254,255,-1,79,255,80,-1,80,255,256,-1,80,256,82,-1,82,256,257,-1,82,257,84,-1,84,257,258,-1,84,258,85,-1,85,258,259,-1,85,259,67,-1,67,259,260,-1,67,260,69,-1,69,260,261,-1,69,261,71,-1,71,261,262,-1,71,262,73,-1,75,73,263,-1,263,73,262,-1,75,263,264,-1,75,264,140,-1,140,264,265,-1,140,265,137,-1,137,265,266,-1,137,266,151,-1,151,266,267,-1,151,267,145,-1,145,267,268,-1,145,268,146,-1,146,268,269,-1,146,269,148,-1,148,269,270,-1,148,270,149,-1,149,270,271,-1,149,271,150,-1,150,271,272,-1,150,272,147,-1,147,272,273,-1,147,273,142,-1,142,273,274,-1,142,274,143,-1,143,274,275,-1,143,275,144,-1,144,275,276,-1,144,276,138,-1,138,276,277,-1,138,277,139,-1,139,277,278,-1,139,278,141,-1,141,278,279,-1,141,279,76,-1,76,279,280,-1,76,280,74,-1,72,74,281,-1,281,74,280,-1,72,281,282,-1,72,282,70,-1,70,282,283,-1,70,283,68,-1,68,283,284,-1,68,284,66,-1,66,284,285,-1,66,285,83,-1,83,285,286,-1,83,286,81,-1,81,286,152,-1,81,152,48,-1,21,287,288,-1,21,288,13,-1,13,288,289,-1,13,289,14,-1,14,289,290,-1,14,290,16,-1,16,290,291,-1,16,291,17,-1,17,291,292,-1,17,292,36,-1,36,292,293,-1,36,293,37,-1,37,293,294,-1,37,294,39,-1,39,294,295,-1,39,295,110,-1,110,295,296,-1,110,296,112,-1,112,296,297,-1,112,297,114,-1,114,297,298,-1,114,298,116,-1,116,298,299,-1,116,299,118,-1,118,299,300,-1,118,300,120,-1,120,300,301,-1,120,301,122,-1,122,301,302,-1,122,302,124,-1,124,302,303,-1,124,303,126,-1,126,303,304,-1,126,304,127,-1,127,304,305,-1,127,305,78,-1,78,305,306,-1,78,306,77,-1,77,306,307,-1,77,307,32,-1,32,307,308,-1,32,308,31,-1,31,308,309,-1,31,309,30,-1,30,309,310,-1,30,310,28,-1,28,310,311,-1,28,311,26,-1,26,311,312,-1,26,312,24,-1,24,312,313,-1,24,313,22,-1,22,313,287,-1,22,287,21,-1,
        ]
    }
}
Shape{
    appearance Appearance {
        material  Material {
            diffuseColor 0.4 0.4 0.4
            specularColor 0.5019607843137255 0.5019607843137255 0.5019607843137255
            ambientIntensity 0.502
            transparency 0.0
            shininess 0.5
        }
    }
    geometry IndexedFaceSet {
        ccw TRUE
        solid FALSE
        coord DEF co Coordinate {
            point [
                1.498 -0.199 0.7273, 1.498 -0.2079 0.7517, 1.498 -0.2093 0.7502, 1.498 -0.1948 0.7277, 1.498 -0.1917 0.729, 1.498 -0.1954 0.7551, 1.498 -0.1984 0.7554, 1.498 -0.2019 0.7549, 1.498 -0.2051 0.7537, 1.498 -0.2118 0.7369, 1.498 -0.2103 0.7339, 1.498 -0.2083 0.7313, 1.498 -0.1984 0.7273, 1.498 -0.2112 0.7472, 1.498 -0.2123 0.7438, 1.498 -0.2124 0.7403, 1.498 -0.2055 0.7292, 1.498 -0.2023 0.7278, 1.498 -0.1889 0.731, 1.498 -0.187 0.7332, 1.498 -0.1853 0.7363, 1.498 -0.1844 0.7397, 1.498 -0.1845 0.743, 1.498 -0.1853 0.7464, 1.498 -0.1868 0.7493, 1.498 -0.1892 0.7519, 1.498 -0.1921 0.7539
            ]
        }
        coordIndex [
            0,1,2,-1,3,4,5,-1,6,7,0,-1,0,7,8,-1,0,8,1,-1,9,10,2,-1,2,10,11,-1,6,0,5,-1,5,0,12,-1,5,12,3,-1,13,14,2,-1,2,14,15,-1,2,15,9,-1,11,16,2,-1,2,16,17,-1,2,17,0,-1,4,18,5,-1,5,18,19,-1,5,19,20,-1,20,21,5,-1,5,21,22,-1,5,22,23,-1,23,24,5,-1,5,24,25,-1,5,25,26,-1,
        ]
    }
}