#VRML V2.0 utf8
# 3D model generated by kicad-lcsc-manager
# Based on easyeda2kicad.py v1.0.1

Shape{
    appearance Appearance {
        material  Material {
            diffuseColor 0.10980392156862745 0.10980392156862745 0.10980392156862745
            specularColor 0.0784313725490196 0.0784313725490196 0.0784313725490196
            ambientIntensity 0.1098
            transparency 0.0
            shininess 0.5
        }
    }
    geometry IndexedFaceSet {
        ccw TRUE
        solid FALSE
        coord DEF co Coordinate {
            point [
                -0.0124 0.0043 0.0394, -0.0124 0.0 0.0394, -0.0163 -0.0002 0.0394, 0.0087 0.0 0.0394, 0.0164 0.002 0.0394, 0.0164 0.0064 0.0394, 0.0087 0.0394 0.0394, -0.0105 0.0178 0.0394, 0.0034 0.0178 0.0394, 0.0034 0.0043 0.0394, -0.0115 0.035 0.0394, -0.0115 0.0394 0.0394, -0.0163 0.2264 0.0394, -0.0105 0.0221 0.0394, 0.0034 0.0221 0.0394, 0.0034 0.035 0.0394, 0.0436 0.029 0.0394, 0.0413 0.0327 0.0394, 0.0639 0.0394 0.0394, 0.0295 0.0351 0.0394, 0.0324 0.034 0.0394, 0.0171 0.006 0.0394, 0.0352 0.0322 0.0394, 0.0375 0.0296 0.0394, 0.0404 0.0193 0.0394, 0.04 0.015 0.0394, 0.0389 0.0116 0.0394, 0.0302 0.0043 0.0394, 0.0265 0.0038 0.0394, 0.033 0.0053 0.0394, 0.0355 0.0069 0.0394, 0.0373 0.0089 0.0394, 0.0213 0.0044 0.0394, 0.0441 0.0102 0.0394, 0.049 0.0043 0.0394, 0.042 0.0065 0.0394, 0.049 0.0 0.0394, 0.0391 0.0034 0.0394, 0.0392 0.0265 0.0394, 0.0402 0.0223 0.0394, 0.0377 0.0361 0.0394, 0.0692 0.0394 0.0394, 0.3937 0.2264 0.0394, 0.0692 0.0 0.0394, 0.3937 -0.0002 0.0394, 0.0295 -0.0002 0.0394, 0.0321 0.0 0.0394, 0.0359 0.0013 0.0394, 0.0639 0.0043 0.0394, 0.0453 0.0144 0.0394, 0.0457 0.0189 0.0394, 0.0451 0.0245 0.0394, 0.034 0.0383 0.0394, 0.0296 0.0395 0.0394, 0.0257 0.0399 0.0394, 0.0209 0.0395 0.0394, 0.0164 0.0383 0.0394, 0.0164 0.033 0.0394, 0.0208 0.0349 0.0394, 0.0256 0.0355 0.0394, 0.0272 -0.0005 0.0394, 0.3937 -0.2264 0.0394, 0.0262 -0.0005 0.0394, -0.0163 -0.2264 0.0394, 0.0246 -0.0002 0.0394, -0.3937 -0.2264 0.0394, -0.3937 -0.0002 0.0394, 0.0206 0.0003 0.0394, -0.0547 0.0 0.0394, -0.0498 0.0108 0.0394, -0.0476 0.0073 0.0394, -0.0844 0.0 0.0394, -0.0902 0.0 0.0394, -0.0748 0.0394 0.0394, -0.3937 0.2264 0.0394, -0.0695 0.0394 0.0394, -0.0443 0.0042 0.0394, -0.0402 0.0018 0.0394, -0.0357 0.0004 0.0394, -0.0308 0.0 0.0394, -0.0201 0.0 0.0394, -0.0201 0.0394 0.0394, -0.0312 0.0394 0.0394, -0.0458 0.0342 0.0394, -0.0486 0.0311 0.0394, -0.0504 0.0278 0.0394, -0.0369 0.0388 0.0394, -0.0415 0.0371 0.0394, -0.0458 0.0343 0.0394, -0.0604 0.0 0.0394, -0.0642 0.011 0.0394, -0.0804 0.011 0.0394, -0.0515 0.0239 0.0394, -0.0518 0.0202 0.0394, -0.0512 0.0149 0.0394, -0.3051 -0.2461 0.2677, -0.3051 -0.2461 0.3031, -0.4134 -0.2461 0.2677, -0.4134 -0.2461 0.3031, 0.2067 -0.2461 0.2677, 0.2067 -0.2461 0.3031, -0.2067 -0.2461 0.2677, -0.2067 -0.2461 0.3031, 0.3051 0.2461 0.2677, 0.3051 0.2461 0.3031, 0.4134 0.2461 0.2677, 0.4134 0.2461 0.3031, 0.0492 0.2461 0.2677, 0.0492 0.2461 0.3031, 0.2067 0.2461 0.2677, 0.2067 0.2461 0.3031, -0.2067 0.2461 0.2677, -0.2067 0.2461 0.3031, -0.0492 0.2461 0.2677, -0.0492 0.2461 0.3031, 0.4134 -0.2461 0.2677, 0.4134 -0.2461 0.3031, -0.4134 0.2461 0.2677, -0.4134 0.2461 0.3031, -0.3051 0.2461 0.2677, -0.3051 0.2461 0.3031, 0.3051 -0.2461 0.2677, 0.3051 -0.2461 0.3031, 0.3937 -0.2264 0.3937, 0.3937 0.2264 0.3937, -0.3937 -0.2264 0.3937, -0.3937 0.2264 0.3937
            ]
        }
        coordIndex [
            0,1,2,-1,2,1,3,-1,4,3,5,-1,5,3,6,-1,7,8,9,-1,10,2,11,-1,11,2,12,-1,11,12,6,-1,9,0,7,-1,7,0,2,-1,7,2,13,-1,13,2,10,-1,13,10,14,-1,14,10,15,-1,16,17,18,-1,19,20,21,-1,21,20,22,-1,21,22,23,-1,24,25,21,-1,21,25,26,-1,27,28,29,-1,29,28,30,-1,26,31,21,-1,21,31,30,-1,21,30,32,-1,32,30,28,-1,33,34,35,-1,35,34,36,-1,35,36,37,-1,23,38,21,-1,21,38,39,-1,21,39,24,-1,17,40,18,-1,18,40,12,-1,18,12,41,-1,41,12,42,-1,41,42,43,-1,43,42,44,-1,45,46,36,-1,36,46,47,-1,36,47,37,-1,18,48,34,-1,33,49,34,-1,34,49,50,-1,34,50,18,-1,18,50,51,-1,18,51,16,-1,40,52,12,-1,12,52,53,-1,12,53,54,-1,54,55,12,-1,12,55,56,-1,12,56,6,-1,6,56,57,-1,6,57,5,-1,5,57,58,-1,5,58,21,-1,21,58,59,-1,21,59,19,-1,36,43,45,-1,45,43,44,-1,45,44,60,-1,60,44,61,-1,60,61,62,-1,62,61,63,-1,62,63,64,-1,65,66,63,-1,63,66,2,-1,63,2,64,-1,64,2,3,-1,64,3,67,-1,67,3,4,-1,68,69,70,-1,71,2,72,-1,72,2,66,-1,72,66,73,-1,73,66,74,-1,73,74,75,-1,75,74,12,-1,70,76,68,-1,68,76,77,-1,68,77,78,-1,79,80,2,-1,2,80,81,-1,2,81,12,-1,12,81,82,-1,83,84,75,-1,75,84,85,-1,82,86,12,-1,12,86,87,-1,12,87,75,-1,75,87,88,-1,75,88,83,-1,78,79,68,-1,68,79,2,-1,68,2,89,-1,89,2,71,-1,89,71,90,-1,90,71,91,-1,85,92,75,-1,75,92,93,-1,75,93,68,-1,68,93,94,-1,68,94,69,-1,95,96,97,-1,97,96,98,-1,99,100,101,-1,101,100,102,-1,103,104,105,-1,105,104,106,-1,107,108,109,-1,109,108,110,-1,111,112,113,-1,113,112,114,-1,105,106,115,-1,115,106,116,-1,117,118,119,-1,119,118,120,-1,97,98,117,-1,117,98,118,-1,115,116,121,-1,121,116,122,-1,123,124,125,-1,125,124,126,-1,
        ]
    }
}
Shape{
    appearance Appearance {
        material  Material {
            diffuseColor 0.7764705882352941 0.7568627450980392 0.7372549019607844
            specularColor 0.38823529411764707 0.3764705882352941 0.3686274509803922
            ambientIntensity 0.7605
            transparency 0.0
            shininess 0.5
        }
    }
    geometry IndexedFaceSet {
        ccw TRUE
        solid FALSE
        coord DEF co Coordinate {
            point [
                -0.3051 -0.4528 0.0551, -0.3051 -0.4528 0.0, -0.2067 -0.4528 0.0551, -0.2067 -0.4528 0.0, -0.3051 -0.2461 0.2677, -0.3051 -0.2475 0.2677, -0.3051 -0.2461 0.3031, -0.3051 -0.2475 0.3228, -0.3051 -0.2418 0.3228, -0.2067 -0.2475 0.2677, -0.2067 -0.2461 0.2677, -0.2067 -0.2418 0.3228, -0.2067 -0.2475 0.3228, -0.2067 -0.2461 0.3031, -0.3051 -0.2593 0.2563, -0.3051 -0.3144 0.2584, -0.3051 -0.2588 0.2593, -0.3051 -0.3116 0.2752, -0.3051 -0.2576 0.2621, -0.3051 -0.3046 0.2908, -0.3051 -0.2557 0.2644, -0.3051 -0.2939 0.3041, -0.3051 -0.2533 0.2662, -0.3051 -0.2802 0.3143, -0.3051 -0.2505 0.2673, -0.3051 -0.2644 0.3207, -0.2067 -0.2505 0.2673, -0.2067 -0.2533 0.2662, -0.2067 -0.2557 0.2644, -0.2067 -0.2576 0.2621, -0.2067 -0.2588 0.2593, -0.2067 -0.2593 0.2563, -0.2067 -0.2644 0.3207, -0.2067 -0.2802 0.3143, -0.2067 -0.2939 0.3041, -0.2067 -0.3046 0.2908, -0.2067 -0.3116 0.2752, -0.2067 -0.3144 0.2584, -0.3051 -0.3214 0.0665, -0.3051 -0.2663 0.0645, -0.2067 -0.2663 0.0645, -0.2067 -0.3214 0.0665, -0.3051 -0.3219 0.0635, -0.3051 -0.2691 0.0476, -0.3051 -0.3231 0.0608, -0.3051 -0.2761 0.0321, -0.3051 -0.325 0.0584, -0.3051 -0.2868 0.0187, -0.3051 -0.3274 0.0566, -0.3051 -0.3005 0.0086, -0.3051 -0.3302 0.0555, -0.3051 -0.3163 0.0022, -0.3051 -0.3332 0.0551, -0.3051 -0.3332 0.0, -0.2067 -0.3332 0.0, -0.2067 -0.3163 0.0022, -0.2067 -0.3005 0.0086, -0.2067 -0.2868 0.0187, -0.2067 -0.2761 0.0321, -0.2067 -0.2691 0.0476, -0.2067 -0.3332 0.0551, -0.2067 -0.3302 0.0555, -0.2067 -0.3274 0.0566, -0.2067 -0.325 0.0584, -0.2067 -0.3231 0.0608, -0.2067 -0.3219 0.0635, 0.2067 -0.4528 0.0551, 0.2067 -0.4528 0.0, 0.3051 -0.4528 0.0551, 0.3051 -0.4528 0.0, 0.2067 -0.2461 0.2677, 0.2067 -0.2475 0.2677, 0.2067 -0.2461 0.3031, 0.2067 -0.2475 0.3228, 0.2067 -0.2418 0.3228, 0.3051 -0.2475 0.2677, 0.3051 -0.2461 0.2677, 0.3051 -0.2418 0.3228, 0.3051 -0.2475 0.3228, 0.3051 -0.2461 0.3031, 0.2067 -0.2593 0.2563, 0.2067 -0.3144 0.2584, 0.2067 -0.2588 0.2593, 0.2067 -0.3116 0.2752, 0.2067 -0.2576 0.2621, 0.2067 -0.3046 0.2908, 0.2067 -0.2557 0.2644, 0.2067 -0.2939 0.3041, 0.2067 -0.2533 0.2662, 0.2067 -0.2802 0.3143, 0.2067 -0.2505 0.2673, 0.2067 -0.2644 0.3207, 0.3051 -0.2505 0.2673, 0.3051 -0.2533 0.2662, 0.3051 -0.2557 0.2644, 0.3051 -0.2576 0.2621, 0.3051 -0.2588 0.2593, 0.3051 -0.2593 0.2563, 0.3051 -0.2644 0.3207, 0.3051 -0.2802 0.3143, 0.3051 -0.2939 0.3041, 0.3051 -0.3046 0.2908, 0.3051 -0.3116 0.2752, 0.3051 -0.3144 0.2584, 0.2067 -0.3214 0.0665, 0.2067 -0.2663 0.0645, 0.3051 -0.2663 0.0645, 0.3051 -0.3214 0.0665, 0.2067 -0.3219 0.0635, 0.2067 -0.2691 0.0476, 0.2067 -0.3231 0.0608, 0.2067 -0.2761 0.0321, 0.2067 -0.325 0.0584, 0.2067 -0.2868 0.0187, 0.2067 -0.3274 0.0566, 0.2067 -0.3005 0.0086, 0.2067 -0.3302 0.0555, 0.2067 -0.3163 0.0022, 0.2067 -0.3332 0.0551, 0.2067 -0.3332 0.0, 0.3051 -0.3332 0.0, 0.3051 -0.3163 0.0022, 0.3051 -0.3005 0.0086, 0.3051 -0.2868 0.0187, 0.3051 -0.2761 0.0321, 0.3051 -0.2691 0.0476, 0.3051 -0.3332 0.0551, 0.3051 -0.3302 0.0555, 0.3051 -0.3274 0.0566, 0.3051 -0.325 0.0584, 0.3051 -0.3231 0.0608, 0.3051 -0.3219 0.0635, 0.0492 0.4528 0.0551, 0.0492 0.4528 0.0, -0.0492 0.4528 0.0551, -0.0492 0.4528 0.0, 0.0492 0.2461 0.2677, 0.0492 0.2475 0.2677, 0.0492 0.2461 0.3031, 0.0492 0.2475 0.3228, 0.0492 0.2418 0.3228, -0.0492 0.2475 0.2677, -0.0492 0.2461 0.2677, -0.0492 0.2418 0.3228, -0.0492 0.2475 0.3228, -0.0492 0.2461 0.3031, 0.0492 0.2593 0.2563, 0.0492 0.3144 0.2584, 0.0492 0.2588 0.2593, 0.0492 0.3116 0.2752, 0.0492 0.2576 0.2621, 0.0492 0.3046 0.2908, 0.0492 0.2557 0.2644, 0.0492 0.2939 0.3041, 0.0492 0.2533 0.2662, 0.0492 0.2802 0.3143, 0.0492 0.2505 0.2673, 0.0492 0.2644 0.3207, -0.0492 0.2505 0.2673, -0.0492 0.2533 0.2662, -0.0492 0.2557 0.2644, -0.0492 0.2576 0.2621, -0.0492 0.2588 0.2593, -0.0492 0.2593 0.2563, -0.0492 0.2644 0.3207, -0.0492 0.2802 0.3143, -0.0492 0.2939 0.3041, -0.0492 0.3046 0.2908, -0.0492 0.3116 0.2752, -0.0492 0.3144 0.2584, 0.0492 0.3214 0.0665, 0.0492 0.2663 0.0645, -0.0492 0.2663 0.0645, -0.0492 0.3214 0.0665, 0.0492 0.3219 0.0635, 0.0492 0.2691 0.0476, 0.0492 0.3231 0.0608, 0.0492 0.2761 0.0321, 0.0492 0.325 0.0584, 0.0492 0.2868 0.0187, 0.0492 0.3274 0.0566, 0.0492 0.3005 0.0086, 0.0492 0.3302 0.0555, 0.0492 0.3163 0.0022, 0.0492 0.3332 0.0551, 0.0492 0.3332 0.0, -0.0492 0.3332 0.0, -0.0492 0.3163 0.0022, -0.0492 0.3005 0.0086, -0.0492 0.2868 0.0187, -0.0492 0.2761 0.0321, -0.0492 0.2691 0.0476, -0.0492 0.3332 0.0551, -0.0492 0.3302 0.0555, -0.0492 0.3274 0.0566, -0.0492 0.325 0.0584, -0.0492 0.3231 0.0608, -0.0492 0.3219 0.0635, -0.2067 0.4528 0.0551, -0.2067 0.4528 0.0, -0.3051 0.4528 0.0551, -0.3051 0.4528 0.0, -0.2067 0.2461 0.2677, -0.2067 0.2475 0.2677, -0.2067 0.2461 0.3031, -0.2067 0.2475 0.3228, -0.2067 0.2418 0.3228, -0.3051 0.2475 0.2677, -0.3051 0.2461 0.2677, -0.3051 0.2418 0.3228, -0.3051 0.2475 0.3228, -0.3051 0.2461 0.3031, -0.2067 0.2593 0.2563, -0.2067 0.3144 0.2584, -0.2067 0.2588 0.2593, -0.2067 0.3116 0.2752, -0.2067 0.2576 0.2621, -0.2067 0.3046 0.2908, -0.2067 0.2557 0.2644, -0.2067 0.2939 0.3041, -0.2067 0.2533 0.2662, -0.2067 0.2802 0.3143, -0.2067 0.2505 0.2673, -0.2067 0.2644 0.3207, -0.3051 0.2505 0.2673, -0.3051 0.2533 0.2662, -0.3051 0.2557 0.2644, -0.3051 0.2576 0.2621, -0.3051 0.2588 0.2593, -0.3051 0.2593 0.2563, -0.3051 0.2644 0.3207, -0.3051 0.2802 0.3143, -0.3051 0.2939 0.3041, -0.3051 0.3046 0.2908, -0.3051 0.3116 0.2752, -0.3051 0.3144 0.2584, -0.2067 0.3214 0.0665, -0.2067 0.2663 0.0645, -0.3051 0.2663 0.0645, -0.3051 0.3214 0.0665, -0.2067 0.3219 0.0635, -0.2067 0.2691 0.0476, -0.2067 0.3231 0.0608, -0.2067 0.2761 0.0321, -0.2067 0.325 0.0584, -0.2067 0.2868 0.0187, -0.2067 0.3274 0.0566, -0.2067 0.3005 0.0086, -0.2067 0.3302 0.0555, -0.2067 0.3163 0.0022, -0.2067 0.3332 0.0551, -0.2067 0.3332 0.0, -0.3051 0.3332 0.0, -0.3051 0.3163 0.0022, -0.3051 0.3005 0.0086, -0.3051 0.2868 0.0187, -0.3051 0.2761 0.0321, -0.3051 0.2691 0.0476, -0.3051 0.3332 0.0551, -0.3051 0.3302 0.0555, -0.3051 0.3274 0.0566, -0.3051 0.325 0.0584, -0.3051 0.3231 0.0608, -0.3051 0.3219 0.0635, 0.2067 0.4528 0.0, 0.2067 0.4528 0.0551, 0.3051 0.4528 0.0, 0.3051 0.4528 0.0551, 0.2067 0.2418 0.3228, 0.2067 0.2475 0.3228, 0.2067 0.2461 0.3031, 0.2067 0.2475 0.2677, 0.2067 0.2461 0.2677, 0.3051 0.2461 0.2677, 0.3051 0.2475 0.2677, 0.3051 0.2461 0.3031, 0.3051 0.2475 0.3228, 0.3051 0.2418 0.3228, 0.2067 0.2505 0.2673, 0.2067 0.2644 0.3207, 0.2067 0.2533 0.2662, 0.2067 0.2802 0.3143, 0.2067 0.2557 0.2644, 0.2067 0.2939 0.3041, 0.2067 0.2576 0.2621, 0.2067 0.3046 0.2908, 0.2067 0.2588 0.2593, 0.2067 0.3116 0.2752, 0.2067 0.2593 0.2563, 0.2067 0.3144 0.2584, 0.3051 0.2593 0.2563, 0.3051 0.2588 0.2593, 0.3051 0.2576 0.2621, 0.3051 0.2557 0.2644, 0.3051 0.2533 0.2662, 0.3051 0.2505 0.2673, 0.3051 0.3144 0.2584, 0.3051 0.3116 0.2752, 0.3051 0.3046 0.2908, 0.3051 0.2939 0.3041, 0.3051 0.2802 0.3143, 0.3051 0.2644 0.3207, 0.2067 0.3214 0.0665, 0.2067 0.2663 0.0645, 0.3051 0.2663 0.0645, 0.3051 0.3214 0.0665, 0.2067 0.3332 0.0551, 0.2067 0.3332 0.0, 0.2067 0.3302 0.0555, 0.2067 0.3163 0.0022, 0.2067 0.3274 0.0566, 0.2067 0.3005 0.0086, 0.2067 0.325 0.0584, 0.2067 0.2868 0.0187, 0.2067 0.3231 0.0608, 0.2067 0.2761 0.0321, 0.2067 0.3219 0.0635, 0.2067 0.2691 0.0476, 0.3051 0.2691 0.0476, 0.3051 0.2761 0.0321, 0.3051 0.2868 0.0187, 0.3051 0.3005 0.0086, 0.3051 0.3163 0.0022, 0.3051 0.3332 0.0, 0.3051 0.3219 0.0635, 0.3051 0.3231 0.0608, 0.3051 0.325 0.0584, 0.3051 0.3274 0.0566, 0.3051 0.3302 0.0555, 0.3051 0.3332 0.0551
            ]
        }
        coordIndex [
            0,1,2,-1,2,1,3,-1,4,5,6,-1,6,5,7,-1,6,7,8,-1,5,4,9,-1,9,4,10,-1,11,12,13,-1,13,12,9,-1,13,9,10,-1,11,8,12,-1,12,8,7,-1,14,15,16,-1,16,15,17,-1,16,17,18,-1,18,17,19,-1,18,19,20,-1,20,19,21,-1,20,21,22,-1,22,21,23,-1,22,23,24,-1,24,23,25,-1,24,25,5,-1,5,25,7,-1,5,9,24,-1,24,9,26,-1,24,26,22,-1,22,26,27,-1,22,27,20,-1,20,27,28,-1,20,28,18,-1,18,28,29,-1,18,29,16,-1,16,29,30,-1,16,30,14,-1,14,30,31,-1,9,12,26,-1,26,12,32,-1,26,32,27,-1,27,32,33,-1,27,33,28,-1,28,33,34,-1,28,34,29,-1,29,34,35,-1,29,35,30,-1,30,35,36,-1,30,36,31,-1,31,36,37,-1,15,37,36,-1,15,36,17,-1,17,36,35,-1,17,35,19,-1,19,35,34,-1,19,34,21,-1,21,34,33,-1,21,33,23,-1,23,33,32,-1,23,32,25,-1,25,32,12,-1,25,12,7,-1,38,15,39,-1,39,15,14,-1,39,14,40,-1,40,14,31,-1,40,31,41,-1,41,31,37,-1,37,15,41,-1,41,15,38,-1,38,39,42,-1,42,39,43,-1,42,43,44,-1,44,43,45,-1,44,45,46,-1,46,45,47,-1,46,47,48,-1,48,47,49,-1,48,49,50,-1,50,49,51,-1,50,51,52,-1,52,51,53,-1,54,53,51,-1,54,51,55,-1,55,51,49,-1,55,49,56,-1,56,49,47,-1,56,47,57,-1,57,47,45,-1,57,45,58,-1,58,45,43,-1,58,43,59,-1,59,43,39,-1,59,39,40,-1,60,54,61,-1,61,54,55,-1,61,55,62,-1,62,55,56,-1,62,56,63,-1,63,56,57,-1,63,57,64,-1,64,57,58,-1,64,58,65,-1,65,58,59,-1,65,59,41,-1,41,59,40,-1,41,38,65,-1,65,38,42,-1,65,42,64,-1,64,42,44,-1,64,44,63,-1,63,44,46,-1,63,46,62,-1,62,46,48,-1,62,48,61,-1,61,48,50,-1,61,50,60,-1,60,50,52,-1,0,52,1,-1,1,52,53,-1,1,53,3,-1,3,53,54,-1,3,54,2,-1,2,54,60,-1,60,52,2,-1,2,52,0,-1,66,67,68,-1,68,67,69,-1,70,71,72,-1,72,71,73,-1,72,73,74,-1,71,70,75,-1,75,70,76,-1,77,78,79,-1,79,78,75,-1,79,75,76,-1,77,74,78,-1,78,74,73,-1,80,81,82,-1,82,81,83,-1,82,83,84,-1,84,83,85,-1,84,85,86,-1,86,85,87,-1,86,87,88,-1,88,87,89,-1,88,89,90,-1,90,89,91,-1,90,91,71,-1,71,91,73,-1,71,75,90,-1,90,75,92,-1,90,92,88,-1,88,92,93,-1,88,93,86,-1,86,93,94,-1,86,94,84,-1,84,94,95,-1,84,95,82,-1,82,95,96,-1,82,96,80,-1,80,96,97,-1,75,78,92,-1,92,78,98,-1,92,98,93,-1,93,98,99,-1,93,99,94,-1,94,99,100,-1,94,100,95,-1,95,100,101,-1,95,101,96,-1,96,101,102,-1,96,102,97,-1,97,102,103,-1,81,103,102,-1,81,102,83,-1,83,102,101,-1,83,101,85,-1,85,101,100,-1,85,100,87,-1,87,100,99,-1,87,99,89,-1,89,99,98,-1,89,98,91,-1,91,98,78,-1,91,78,73,-1,104,81,105,-1,105,81,80,-1,105,80,106,-1,106,80,97,-1,106,97,107,-1,107,97,103,-1,103,81,107,-1,107,81,104,-1,104,105,108,-1,108,105,109,-1,108,109,110,-1,110,109,111,-1,110,111,112,-1,112,111,113,-1,112,113,114,-1,114,113,115,-1,114,115,116,-1,116,115,117,-1,116,117,118,-1,118,117,119,-1,120,119,117,-1,120,117,121,-1,121,117,115,-1,121,115,122,-1,122,115,113,-1,122,113,123,-1,123,113,111,-1,123,111,124,-1,124,111,109,-1,124,109,125,-1,125,109,105,-1,125,105,106,-1,126,120,127,-1,127,120,121,-1,127,121,128,-1,128,121,122,-1,128,122,129,-1,129,122,123,-1,129,123,130,-1,130,123,124,-1,130,124,131,-1,131,124,125,-1,131,125,107,-1,107,125,106,-1,107,104,131,-1,131,104,108,-1,131,108,130,-1,130,108,110,-1,130,110,129,-1,129,110,112,-1,129,112,128,-1,128,112,114,-1,128,114,127,-1,127,114,116,-1,127,116,126,-1,126,116,118,-1,66,118,67,-1,67,118,119,-1,67,119,69,-1,69,119,120,-1,69,120,68,-1,68,120,126,-1,126,118,68,-1,68,118,66,-1,132,133,134,-1,134,133,135,-1,136,137,138,-1,138,137,139,-1,138,139,140,-1,137,136,141,-1,141,136,142,-1,143,144,145,-1,145,144,141,-1,145,141,142,-1,143,140,144,-1,144,140,139,-1,146,147,148,-1,148,147,149,-1,148,149,150,-1,150,149,151,-1,150,151,152,-1,152,151,153,-1,152,153,154,-1,154,153,155,-1,154,155,156,-1,156,155,157,-1,156,157,137,-1,137,157,139,-1,137,141,156,-1,156,141,158,-1,156,158,154,-1,154,158,159,-1,154,159,152,-1,152,159,160,-1,152,160,150,-1,150,160,161,-1,150,161,148,-1,148,161,162,-1,148,162,146,-1,146,162,163,-1,141,144,158,-1,158,144,164,-1,158,164,159,-1,159,164,165,-1,159,165,160,-1,160,165,166,-1,160,166,161,-1,161,166,167,-1,161,167,162,-1,162,167,168,-1,162,168,163,-1,163,168,169,-1,147,169,168,-1,147,168,149,-1,149,168,167,-1,149,167,151,-1,151,167,166,-1,151,166,153,-1,153,166,165,-1,153,165,155,-1,155,165,164,-1,155,164,157,-1,157,164,144,-1,157,144,139,-1,170,147,171,-1,171,147,146,-1,171,146,172,-1,172,146,163,-1,172,163,173,-1,173,163,169,-1,169,147,173,-1,173,147,170,-1,170,171,174,-1,174,171,175,-1,174,175,176,-1,176,175,177,-1,176,177,178,-1,178,177,179,-1,178,179,180,-1,180,179,181,-1,180,181,182,-1,182,181,183,-1,182,183,184,-1,184,183,185,-1,186,185,183,-1,186,183,187,-1,187,183,181,-1,187,181,188,-1,188,181,179,-1,188,179,189,-1,189,179,177,-1,189,177,190,-1,190,177,175,-1,190,175,191,-1,191,175,171,-1,191,171,172,-1,192,186,193,-1,193,186,187,-1,193,187,194,-1,194,187,188,-1,194,188,195,-1,195,188,189,-1,195,189,196,-1,196,189,190,-1,196,190,197,-1,197,190,191,-1,197,191,173,-1,173,191,172,-1,173,170,197,-1,197,170,174,-1,197,174,196,-1,196,174,176,-1,196,176,195,-1,195,176,178,-1,195,178,194,-1,194,178,180,-1,194,180,193,-1,193,180,182,-1,193,182,192,-1,192,182,184,-1,132,184,133,-1,133,184,185,-1,133,185,135,-1,135,185,186,-1,135,186,134,-1,134,186,192,-1,192,184,134,-1,134,184,132,-1,198,199,200,-1,200,199,201,-1,202,203,204,-1,204,203,205,-1,204,205,206,-1,203,202,207,-1,207,202,208,-1,209,210,211,-1,211,210,207,-1,211,207,208,-1,209,206,210,-1,210,206,205,-1,212,213,214,-1,214,213,215,-1,214,215,216,-1,216,215,217,-1,216,217,218,-1,218,217,219,-1,218,219,220,-1,220,219,221,-1,220,221,222,-1,222,221,223,-1,222,223,203,-1,203,223,205,-1,203,207,222,-1,222,207,224,-1,222,224,220,-1,220,224,225,-1,220,225,218,-1,218,225,226,-1,218,226,216,-1,216,226,227,-1,216,227,214,-1,214,227,228,-1,214,228,212,-1,212,228,229,-1,207,210,224,-1,224,210,230,-1,224,230,225,-1,225,230,231,-1,225,231,226,-1,226,231,232,-1,226,232,227,-1,227,232,233,-1,227,233,228,-1,228,233,234,-1,228,234,229,-1,229,234,235,-1,213,235,234,-1,213,234,215,-1,215,234,233,-1,215,233,217,-1,217,233,232,-1,217,232,219,-1,219,232,231,-1,219,231,221,-1,221,231,230,-1,221,230,223,-1,223,230,210,-1,223,210,205,-1,236,213,237,-1,237,213,212,-1,237,212,238,-1,238,212,229,-1,238,229,239,-1,239,229,235,-1,235,213,239,-1,239,213,236,-1,236,237,240,-1,240,237,241,-1,240,241,242,-1,242,241,243,-1,242,243,244,-1,244,243,245,-1,244,245,246,-1,246,245,247,-1,246,247,248,-1,248,247,249,-1,248,249,250,-1,250,249,251,-1,252,251,249,-1,252,249,253,-1,253,249,247,-1,253,247,254,-1,254,247,245,-1,254,245,255,-1,255,245,243,-1,255,243,256,-1,256,243,241,-1,256,241,257,-1,257,241,237,-1,257,237,238,-1,258,252,259,-1,259,252,253,-1,259,253,260,-1,260,253,254,-1,260,254,261,-1,261,254,255,-1,261,255,262,-1,262,255,256,-1,262,256,263,-1,263,256,257,-1,263,257,239,-1,239,257,238,-1,239,236,263,-1,263,236,240,-1,263,240,262,-1,262,240,242,-1,262,242,261,-1,261,242,244,-1,261,244,260,-1,260,244,246,-1,260,246,259,-1,259,246,248,-1,259,248,258,-1,258,248,250,-1,198,250,199,-1,199,250,251,-1,199,251,201,-1,201,251,252,-1,201,252,200,-1,200,252,258,-1,258,250,200,-1,200,250,198,-1,264,265,266,-1,266,265,267,-1,268,269,270,-1,270,269,271,-1,270,271,272,-1,272,271,273,-1,273,271,274,-1,273,274,275,-1,275,274,276,-1,275,276,277,-1,268,277,269,-1,269,277,276,-1,271,269,278,-1,278,269,279,-1,278,279,280,-1,280,279,281,-1,280,281,282,-1,282,281,283,-1,282,283,284,-1,284,283,285,-1,284,285,286,-1,286,285,287,-1,286,287,288,-1,288,287,289,-1,288,290,286,-1,286,290,291,-1,286,291,284,-1,284,291,292,-1,284,292,282,-1,282,292,293,-1,282,293,280,-1,280,293,294,-1,280,294,278,-1,278,294,295,-1,278,295,271,-1,271,295,274,-1,290,296,291,-1,291,296,297,-1,291,297,292,-1,292,297,298,-1,292,298,293,-1,293,298,299,-1,293,299,294,-1,294,299,300,-1,294,300,295,-1,295,300,301,-1,295,301,274,-1,274,301,276,-1,269,276,301,-1,269,301,279,-1,279,301,300,-1,279,300,281,-1,281,300,299,-1,281,299,283,-1,283,299,298,-1,283,298,285,-1,285,298,297,-1,285,297,287,-1,287,297,296,-1,287,296,289,-1,289,302,288,-1,288,302,303,-1,288,303,290,-1,290,303,304,-1,290,304,296,-1,296,304,305,-1,289,296,302,-1,302,296,305,-1,306,307,308,-1,308,307,309,-1,308,309,310,-1,310,309,311,-1,310,311,312,-1,312,311,313,-1,312,313,314,-1,314,313,315,-1,314,315,316,-1,316,315,317,-1,316,317,302,-1,302,317,303,-1,304,303,317,-1,304,317,318,-1,318,317,315,-1,318,315,319,-1,319,315,313,-1,319,313,320,-1,320,313,311,-1,320,311,321,-1,321,311,309,-1,321,309,322,-1,322,309,307,-1,322,307,323,-1,305,304,324,-1,324,304,318,-1,324,318,325,-1,325,318,319,-1,325,319,326,-1,326,319,320,-1,326,320,327,-1,327,320,321,-1,327,321,328,-1,328,321,322,-1,328,322,329,-1,329,322,323,-1,329,306,328,-1,328,306,308,-1,328,308,327,-1,327,308,310,-1,327,310,326,-1,326,310,312,-1,326,312,325,-1,325,312,314,-1,325,314,324,-1,324,314,316,-1,324,316,305,-1,305,316,302,-1,306,265,307,-1,307,265,264,-1,307,264,323,-1,323,264,266,-1,323,266,329,-1,329,266,267,-1,306,329,265,-1,265,329,267,-1,
        ]
    }
}
Shape{
    appearance Appearance {
        material  Material {
            diffuseColor 0.10980392156862745 0.10980392156862745 0.10980392156862745
            specularColor 0.0784313725490196 0.0784313725490196 0.0784313725490196
            ambientIntensity 0.1098
            transparency 0.0
            shininess 0.5
        }
    }
    geometry IndexedFaceSet {
        ccw TRUE
        solid FALSE
        coord DEF co Coordinate {
            point [
                0.3937 0.2264 0.3937, 0.4134 0.2461 0.3031, 0.3051 0.2461 0.3031, 0.2067 0.2461 0.3031, 0.0492 0.2461 0.3031, 0.2067 0.2418 0.3228, 0.0492 0.2418 0.3228, 0.3051 0.2418 0.3228, -0.3937 0.2264 0.3937, -0.0492 0.2418 0.3228, -0.3051 0.2461 0.3031, -0.4134 0.2461 0.3031, -0.3051 0.2418 0.3228, -0.2067 0.2418 0.3228, -0.2067 0.2461 0.3031, -0.0492 0.2461 0.3031, -0.4134 -0.2461 0.3031, -0.3937 -0.2264 0.3937, 0.3937 -0.2264 0.3937, 0.4134 -0.2461 0.3031, -0.3051 -0.2461 0.3031, -0.3051 -0.2418 0.3228, -0.2067 -0.2418 0.3228, 0.3051 -0.2461 0.3031, 0.3051 -0.2418 0.3228, 0.2067 -0.2418 0.3228, 0.2067 -0.2461 0.3031, -0.2067 -0.2461 0.3031, 0.4134 -0.2461 0.2677, 0.3051 -0.2461 0.2677, 0.3937 -0.2264 0.0394, 0.2067 -0.2461 0.2677, -0.0163 -0.2264 0.0394, -0.2067 -0.2461 0.2677, -0.3937 -0.2264 0.0394, -0.3051 -0.2461 0.2677, -0.4134 -0.2461 0.2677, 0.3937 0.2264 0.0394, 0.4134 0.2461 0.2677, 0.3937 -0.0002 0.0394, -0.4134 0.2461 0.2677, -0.3937 0.2264 0.0394, -0.3937 -0.0002 0.0394, 0.3051 0.2461 0.2677, -0.3051 0.2461 0.2677, -0.2067 0.2461 0.2677, -0.0163 0.2264 0.0394, -0.0492 0.2461 0.2677, 0.0492 0.2461 0.2677, 0.2067 0.2461 0.2677
            ]
        }
        coordIndex [
            0,1,2,-1,3,4,5,-1,5,4,6,-1,2,7,0,-1,0,7,5,-1,0,5,8,-1,8,5,6,-1,8,6,9,-1,10,11,12,-1,12,11,8,-1,12,8,13,-1,13,8,9,-1,13,9,14,-1,14,9,15,-1,16,17,11,-1,11,17,8,-1,18,19,0,-1,0,19,1,-1,17,16,20,-1,20,21,17,-1,17,21,22,-1,17,22,18,-1,23,19,24,-1,24,19,18,-1,24,18,25,-1,25,18,22,-1,25,22,26,-1,26,22,27,-1,28,29,30,-1,30,29,31,-1,30,31,32,-1,32,31,33,-1,32,33,34,-1,34,33,35,-1,34,35,36,-1,37,38,39,-1,39,38,28,-1,39,28,30,-1,40,41,36,-1,36,41,42,-1,36,42,34,-1,43,38,37,-1,40,44,41,-1,41,44,45,-1,41,45,46,-1,45,47,46,-1,46,47,48,-1,46,48,37,-1,37,48,49,-1,37,49,43,-1,
        ]
    }
}
Shape{
    appearance Appearance {
        material  Material {
            diffuseColor 0.7764705882352941 0.7568627450980392 0.7372549019607844
            specularColor 0.38823529411764707 0.3764705882352941 0.3686274509803922
            ambientIntensity 0.7605
            transparency 0.0
            shininess 0.5
        }
    }
    geometry IndexedFaceSet {
        ccw TRUE
        solid FALSE
        coord DEF co Coordinate {
            point [
                -0.0655 0.0154 0.0591, -0.0642 0.011 0.0591, -0.0787 0.0154 0.0591, -0.0804 0.011 0.0591, -0.0714 0.0318 0.0591, -0.0695 0.0394 0.0591, -0.0547 0.0 0.0591, -0.0604 0.0 0.0591, -0.0718 0.0332 0.0591, -0.072 0.0346 0.0591, -0.0748 0.0394 0.0591, -0.0721 0.0346 0.0591, -0.0724 0.0332 0.0591, -0.0727 0.0318 0.0591, -0.0902 0.0 0.0591, -0.0844 0.0 0.0591, -0.0804 0.011 0.0394, -0.0844 0.0 0.0394, -0.0642 0.011 0.0394, -0.0604 0.0 0.0394, -0.0547 0.0 0.0394, -0.0695 0.0394 0.0394, -0.0748 0.0394 0.0394, -0.0902 0.0 0.0394, -0.0727 0.0318 0.0394, -0.0724 0.0332 0.0394, -0.0721 0.0346 0.0394, -0.072 0.0346 0.0394, -0.0718 0.0332 0.0394, -0.0714 0.0318 0.0394, -0.0655 0.0154 0.0394, -0.0787 0.0154 0.0394, -0.0312 0.0394 0.0591, -0.0312 0.0394 0.0394, -0.0201 0.0394 0.0591, -0.0201 0.0394 0.0394, -0.0369 0.0388 0.0591, -0.0369 0.0388 0.0394, -0.0415 0.0371 0.0591, -0.0415 0.0371 0.0394, -0.0458 0.0343 0.0591, -0.0458 0.0343 0.0394, -0.0458 0.0342 0.0591, -0.0458 0.0342 0.0394, -0.0486 0.0311 0.0591, -0.0486 0.0311 0.0394, -0.0504 0.0278 0.0591, -0.0504 0.0278 0.0394, -0.0515 0.0239 0.0591, -0.0515 0.0239 0.0394, -0.0518 0.0202 0.0591, -0.0518 0.0202 0.0394, -0.0512 0.0149 0.0591, -0.0512 0.0149 0.0394, -0.0498 0.0108 0.0591, -0.0498 0.0108 0.0394, -0.0476 0.0073 0.0591, -0.0476 0.0073 0.0394, -0.0443 0.0042 0.0591, -0.0443 0.0042 0.0394, -0.0402 0.0018 0.0591, -0.0402 0.0018 0.0394, -0.0357 0.0004 0.0591, -0.0357 0.0004 0.0394, -0.0308 0.0 0.0591, -0.0308 0.0 0.0394, -0.0201 0.0 0.0591, -0.0201 0.0 0.0394, -0.0439 0.0295 0.0591, -0.042 0.0316 0.0591, -0.0391 0.0334 0.0591, -0.0358 0.0346 0.0591, -0.0312 0.035 0.0591, -0.0254 0.035 0.0591, -0.0254 0.0043 0.0591, -0.031 0.0043 0.0591, -0.0351 0.0047 0.0591, -0.0384 0.0057 0.0591, -0.0411 0.0073 0.0591, -0.0433 0.0095 0.0591, -0.045 0.0122 0.0591, -0.0461 0.0159 0.0591, -0.0465 0.0201 0.0591, -0.0462 0.024 0.0591, -0.0452 0.0271 0.0591, -0.031 0.0043 0.0394, -0.0254 0.0043 0.0394, -0.0351 0.0047 0.0394, -0.0384 0.0057 0.0394, -0.0411 0.0073 0.0394, -0.0433 0.0095 0.0394, -0.045 0.0122 0.0394, -0.0461 0.0159 0.0394, -0.0465 0.0201 0.0394, -0.0462 0.024 0.0394, -0.0452 0.0271 0.0394, -0.0439 0.0295 0.0394, -0.042 0.0316 0.0394, -0.0391 0.0334 0.0394, -0.0358 0.0346 0.0394, -0.0312 0.035 0.0394, -0.0254 0.035 0.0394, 0.0087 0.0394 0.0591, 0.0087 0.0394 0.0394, 0.0087 0.0 0.0591, 0.0087 0.0 0.0394, -0.0115 0.0394 0.0591, -0.0115 0.0394 0.0394, -0.0115 0.035 0.0591, -0.0115 0.035 0.0394, 0.0034 0.035 0.0591, 0.0034 0.035 0.0394, 0.0034 0.0221 0.0591, 0.0034 0.0221 0.0394, -0.0105 0.0221 0.0591, -0.0105 0.0221 0.0394, -0.0105 0.0178 0.0591, -0.0105 0.0178 0.0394, 0.0034 0.0178 0.0591, 0.0034 0.0178 0.0394, 0.0034 0.0043 0.0591, 0.0034 0.0043 0.0394, -0.0124 0.0043 0.0591, -0.0124 0.0043 0.0394, -0.0124 0.0 0.0591, -0.0124 0.0 0.0394, 0.0272 -0.0005 0.0394, 0.0272 -0.0005 0.0591, 0.0295 -0.0002 0.0394, 0.0321 0.0 0.0591, 0.0321 0.0 0.0394, 0.0359 0.0013 0.0591, 0.0359 0.0013 0.0394, 0.0391 0.0034 0.0591, 0.0391 0.0034 0.0394, 0.042 0.0065 0.0591, 0.042 0.0065 0.0394, 0.0441 0.0102 0.0591, 0.0441 0.0102 0.0394, 0.0453 0.0144 0.0591, 0.0453 0.0144 0.0394, 0.0457 0.0189 0.0591, 0.0457 0.0189 0.0394, 0.0451 0.0245 0.0591, 0.0451 0.0245 0.0394, 0.0436 0.029 0.0591, 0.0436 0.029 0.0394, 0.0413 0.0327 0.0591, 0.0413 0.0327 0.0394, 0.0377 0.0361 0.0591, 0.0377 0.0361 0.0394, 0.034 0.0383 0.0591, 0.034 0.0383 0.0394, 0.0296 0.0395 0.0591, 0.0296 0.0395 0.0394, 0.0257 0.0399 0.0591, 0.0257 0.0399 0.0394, 0.0209 0.0395 0.0591, 0.0209 0.0395 0.0394, 0.0164 0.0383 0.0591, 0.0164 0.0383 0.0394, 0.0164 0.033 0.0591, 0.0164 0.033 0.0394, 0.0208 0.0349 0.0591, 0.0208 0.0349 0.0394, 0.0256 0.0355 0.0591, 0.0256 0.0355 0.0394, 0.0295 0.0351 0.0591, 0.0295 0.0351 0.0394, 0.0324 0.034 0.0591, 0.0324 0.034 0.0394, 0.0352 0.0322 0.0591, 0.0352 0.0322 0.0394, 0.0375 0.0296 0.0591, 0.0375 0.0296 0.0394, 0.0392 0.0265 0.0591, 0.0392 0.0265 0.0394, 0.0402 0.0223 0.0591, 0.0402 0.0223 0.0394, 0.0404 0.0193 0.0591, 0.0404 0.0193 0.0394, 0.04 0.015 0.0591, 0.04 0.015 0.0394, 0.0389 0.0116 0.0591, 0.0389 0.0116 0.0394, 0.0373 0.0089 0.0591, 0.0373 0.0089 0.0394, 0.0355 0.0069 0.0591, 0.0355 0.0069 0.0394, 0.033 0.0053 0.0591, 0.033 0.0053 0.0394, 0.0302 0.0043 0.0591, 0.0302 0.0043 0.0394, 0.0265 0.0038 0.0591, 0.0265 0.0038 0.0394, 0.0213 0.0044 0.0591, 0.0213 0.0044 0.0394, 0.0171 0.006 0.0591, 0.0171 0.006 0.0394, 0.0164 0.0064 0.0591, 0.0164 0.0064 0.0394, 0.0164 0.002 0.0591, 0.0164 0.002 0.0394, 0.0206 0.0003 0.0394, 0.0206 0.0003 0.0591, 0.0246 -0.0002 0.0394, 0.0262 -0.0005 0.0591, 0.0262 -0.0005 0.0394, 0.0692 0.0394 0.0591, 0.0692 0.0394 0.0394, 0.0692 0.0 0.0591, 0.0692 0.0 0.0394, 0.0639 0.0394 0.0591, 0.0639 0.0394 0.0394, 0.0639 0.0043 0.0591, 0.0639 0.0043 0.0394, 0.049 0.0043 0.0591, 0.049 0.0043 0.0394, 0.049 0.0 0.0591, 0.049 0.0 0.0394
            ]
        }
        coordIndex [
            0,1,2,-1,2,1,3,-1,4,5,0,-1,0,5,6,-1,0,6,1,-1,1,6,7,-1,4,8,5,-1,5,8,9,-1,5,9,10,-1,10,9,11,-1,10,11,12,-1,12,13,10,-1,10,13,2,-1,10,2,14,-1,14,2,3,-1,14,3,15,-1,3,16,15,-1,15,16,17,-1,1,18,3,-1,3,18,16,-1,7,19,1,-1,1,19,18,-1,6,20,7,-1,7,20,19,-1,5,21,6,-1,6,21,20,-1,10,22,5,-1,5,22,21,-1,14,23,10,-1,10,23,22,-1,14,15,23,-1,23,15,17,-1,24,13,12,-1,24,12,25,-1,25,12,11,-1,25,11,26,-1,9,27,11,-1,11,27,26,-1,27,9,8,-1,27,8,28,-1,28,8,4,-1,28,4,29,-1,0,30,4,-1,4,30,29,-1,2,31,0,-1,0,31,30,-1,24,31,13,-1,13,31,2,-1,32,33,34,-1,34,33,35,-1,33,32,36,-1,33,36,37,-1,37,36,38,-1,37,38,39,-1,39,38,40,-1,39,40,41,-1,41,40,42,-1,41,42,43,-1,43,42,44,-1,43,44,45,-1,45,44,46,-1,45,46,47,-1,47,46,48,-1,47,48,49,-1,49,48,50,-1,49,50,51,-1,51,50,52,-1,51,52,53,-1,53,52,54,-1,53,54,55,-1,55,54,56,-1,55,56,57,-1,57,56,58,-1,57,58,59,-1,59,58,60,-1,59,60,61,-1,61,60,62,-1,61,62,63,-1,63,62,64,-1,63,64,65,-1,66,67,64,-1,64,67,65,-1,66,34,67,-1,67,34,35,-1,46,44,68,-1,68,44,42,-1,68,42,69,-1,69,42,40,-1,69,40,70,-1,70,40,38,-1,70,38,71,-1,71,38,36,-1,71,36,72,-1,72,36,32,-1,72,32,73,-1,73,32,34,-1,73,34,74,-1,74,34,66,-1,74,66,75,-1,75,66,64,-1,75,64,76,-1,76,64,62,-1,76,62,77,-1,77,62,60,-1,77,60,78,-1,78,60,58,-1,78,58,79,-1,79,58,56,-1,79,56,80,-1,80,56,54,-1,80,54,81,-1,81,54,52,-1,81,52,82,-1,82,52,50,-1,82,50,83,-1,83,50,48,-1,83,48,84,-1,84,48,46,-1,84,46,68,-1,75,85,74,-1,74,85,86,-1,85,75,76,-1,85,76,87,-1,87,76,77,-1,87,77,88,-1,88,77,78,-1,88,78,89,-1,89,78,79,-1,89,79,90,-1,90,79,80,-1,90,80,91,-1,91,80,81,-1,91,81,92,-1,92,81,82,-1,92,82,93,-1,93,82,83,-1,93,83,94,-1,94,83,84,-1,94,84,95,-1,95,84,68,-1,95,68,96,-1,96,68,69,-1,96,69,97,-1,97,69,70,-1,97,70,98,-1,98,70,71,-1,98,71,99,-1,99,71,72,-1,99,72,100,-1,73,101,72,-1,72,101,100,-1,86,101,74,-1,74,101,73,-1,102,103,104,-1,104,103,105,-1,106,107,102,-1,102,107,103,-1,108,109,106,-1,106,109,107,-1,110,111,108,-1,108,111,109,-1,112,113,110,-1,110,113,111,-1,114,115,112,-1,112,115,113,-1,116,117,114,-1,114,117,115,-1,118,119,116,-1,116,119,117,-1,120,121,118,-1,118,121,119,-1,122,123,120,-1,120,123,121,-1,124,125,122,-1,122,125,123,-1,124,104,125,-1,125,104,105,-1,104,124,122,-1,122,120,104,-1,104,120,118,-1,104,118,102,-1,108,106,110,-1,110,106,102,-1,110,102,112,-1,112,102,118,-1,112,118,114,-1,114,118,116,-1,126,127,128,-1,128,127,129,-1,128,129,130,-1,130,129,131,-1,130,131,132,-1,132,131,133,-1,132,133,134,-1,134,133,135,-1,134,135,136,-1,136,135,137,-1,136,137,138,-1,138,137,139,-1,138,139,140,-1,140,139,141,-1,140,141,142,-1,142,141,143,-1,142,143,144,-1,144,143,145,-1,144,145,146,-1,146,145,147,-1,146,147,148,-1,148,147,149,-1,148,149,150,-1,150,149,151,-1,150,151,152,-1,152,151,153,-1,152,153,154,-1,154,153,155,-1,154,155,156,-1,156,155,157,-1,156,157,158,-1,158,157,159,-1,158,159,160,-1,161,162,159,-1,159,162,160,-1,162,161,163,-1,162,163,164,-1,164,163,165,-1,164,165,166,-1,166,165,167,-1,166,167,168,-1,168,167,169,-1,168,169,170,-1,170,169,171,-1,170,171,172,-1,172,171,173,-1,172,173,174,-1,174,173,175,-1,174,175,176,-1,176,175,177,-1,176,177,178,-1,178,177,179,-1,178,179,180,-1,180,179,181,-1,180,181,182,-1,182,181,183,-1,182,183,184,-1,184,183,185,-1,184,185,186,-1,186,185,187,-1,186,187,188,-1,188,187,189,-1,188,189,190,-1,190,189,191,-1,190,191,192,-1,192,191,193,-1,192,193,194,-1,194,193,195,-1,194,195,196,-1,196,195,197,-1,196,197,198,-1,198,197,199,-1,198,199,200,-1,201,202,199,-1,199,202,200,-1,203,202,204,-1,204,202,201,-1,203,204,205,-1,205,204,206,-1,205,206,207,-1,207,206,127,-1,207,127,126,-1,191,127,193,-1,193,127,206,-1,193,206,195,-1,195,206,204,-1,195,204,197,-1,197,204,201,-1,197,201,199,-1,161,159,163,-1,163,159,157,-1,163,157,165,-1,165,157,155,-1,165,155,167,-1,167,155,153,-1,167,153,169,-1,169,153,151,-1,169,151,171,-1,171,151,149,-1,171,149,173,-1,173,149,147,-1,173,147,175,-1,175,147,145,-1,175,145,177,-1,177,145,143,-1,177,143,179,-1,179,143,141,-1,179,141,181,-1,181,141,139,-1,181,139,183,-1,183,139,137,-1,183,137,185,-1,185,137,135,-1,185,135,187,-1,187,135,133,-1,187,133,189,-1,189,133,131,-1,189,131,191,-1,191,131,129,-1,191,129,127,-1,208,209,210,-1,210,209,211,-1,212,213,208,-1,208,213,209,-1,214,215,212,-1,212,215,213,-1,216,217,214,-1,214,217,215,-1,218,219,216,-1,216,219,217,-1,218,210,219,-1,219,210,211,-1,212,208,214,-1,214,208,210,-1,214,210,216,-1,216,210,218,-1,
        ]
    }
}
Shape{
    appearance Appearance {
        material  Material {
            diffuseColor 0.10980392156862745 0.10980392156862745 0.10980392156862745
            specularColor 0.0784313725490196 0.0784313725490196 0.0784313725490196
            ambientIntensity 0.1098
            transparency 0.0
            shininess 0.5
        }
    }
    geometry IndexedFaceSet {
        ccw TRUE
        solid FALSE
        coord DEF co Coordinate {
            point [
                -0.0655 0.0154 0.0394, -0.0787 0.0154 0.0394, -0.0714 0.0318 0.0394, -0.0727 0.0318 0.0394, -0.0718 0.0332 0.0394, -0.0724 0.0332 0.0394, -0.072 0.0346 0.0394, -0.0721 0.0346 0.0394, -0.0254 0.035 0.0394, -0.0254 0.0043 0.0394, -0.0312 0.035 0.0394, -0.031 0.0043 0.0394, -0.0351 0.0047 0.0394, -0.0465 0.0201 0.0394, -0.0462 0.024 0.0394, -0.0452 0.0271 0.0394, -0.0358 0.0346 0.0394, -0.0384 0.0057 0.0394, -0.0411 0.0073 0.0394, -0.0433 0.0095 0.0394, -0.045 0.0122 0.0394, -0.0461 0.0159 0.0394, -0.0439 0.0295 0.0394, -0.042 0.0316 0.0394, -0.0391 0.0334 0.0394
            ]
        }
        coordIndex [
            0,1,2,-1,2,1,3,-1,2,3,4,-1,4,3,5,-1,4,5,6,-1,6,5,7,-1,8,9,10,-1,10,9,11,-1,10,11,12,-1,13,14,10,-1,10,14,15,-1,10,15,16,-1,12,17,10,-1,10,17,18,-1,10,18,19,-1,19,20,10,-1,10,20,21,-1,10,21,13,-1,22,23,15,-1,15,23,24,-1,15,24,16,-1,
        ]
    }
}